<svg version="1" xmlns="http://www.w3.org/2000/svg" width="800" height="800" viewBox="0 0 600.000000 600.000000"><path d="M197.5 41.9c-.6 1.1.9 2.3 1.9 1.4.9-.9.7-2.3-.3-2.3-.6 0-1.2.4-1.6.9zM12.3 52.4c.5 1.4.3 1.7-.8 1.3-1.3-.5-4.9 1.8-9.3 6-2.4 2.3 0 1.4 3.6-1.4 2.4-1.8 4.6-2.6 6.6-2.5 8.5.6 32.5 4.6 35 5.8 1.6.8 3.3 1.4 3.8 1.4s8.3 3.1 17.2 7c17 7.3 23.6 8.8 21.6 5-.6-1.1-1.4-1.9-1.8-1.6-.8.5-8.5-2.1-14.2-4.7-1.9-.9-8-3.7-13.5-6.2-8.3-3.9-10.9-4.7-15.3-4.6-3 .1-5.1-.2-4.9-.6.3-.4-1.6-.7-4.1-.6-3.4.2-4.1 0-2.7-.6 2.2-1 1.8-1.1-12.4-3.1-4.1-.6-7.9-1.3-8.4-1.7-.6-.4-.8 0-.4 1.1zm11 2.3c-.7.2-2.1.2-3 0-1-.3-.4-.5 1.2-.5 1.7 0 2.4.2 1.8.5zM205.3 52.1c1 .6 2.1.8 2.4.5.4-.3 1.1-.2 1.8.4 1.6 1.3 9.5 2.2 9.5 1 0-1-2.7-1.5-6.2-1.2-1 .1-1.8-.3-1.8-.8 0-.6-1.7-1-3.7-1-3.2.1-3.5.2-2 1.1zM221 52.9c0 .6.4 1.3 1 1.6.6.3.7-.1.4-.9-.7-1.8-1.4-2.1-1.4-.7zM298 56c0 .6-.9 1-2 1s-2.9 1.3-4.2 3c-2.1 2.9-2.3 2.9-4.6 1.4-1.8-1.2-2.6-1.3-3.2-.4-.4.6-1.1 1-1.6.8-.5-.1-1.1.9-1.4 2.4-.3 1.5-1.2 3.6-2.1 4.6-.8 1-1.8 2.5-2.2 3.4-.4 1.1-1.3 1.5-2.9 1.1-2.2-.4-2.2-.4-.4 1.1 1.9 1.5 1.9 1.6-1.1 1.6-1.7 0-3.6.7-4.3 1.5-.7.8-1.7 1.5-2.3 1.5-1.9 0-9.8 9.3-8.6 10.1.7.4.3 1.2-1.2 2.2-2.5 1.8-5.1 1.1-2.8-.7 1.6-1.2 2.4-6 .8-5.1-.5.4-.9 1-.9 1.5 0 .4-1.2 2.7-2.7 4.9-2.5 3.9-2.7 4-4.5 2.4-1.3-1.1-1.7-2.5-1.3-4 .4-1.6.1-2.3-1-2.3-.8 0-1.5-.4-1.5-1 0-.5-.7-.7-1.5-.4-.8.4-1.5 1.5-1.5 2.6 0 1.7-.3 1.8-1.4.9-1.7-1.5-2.8-.1-1.5 1.9 1.9 3.1 1 6.1-2.1 7.1-1.9.7-3 1.8-3 3s-.7 1.9-2 1.9c-1.1 0-2 .5-2 1.1 0 .6.8.8 1.8.5.9-.4.2.5-1.5 1.9-1.8 1.5-3.3 3.1-3.3 3.7 0 .5-1.1 2.3-2.5 4-1.4 1.6-2.5 4-2.5 5.4 0 1.3-.5 2.4-1 2.4-1.3 0-2.9 4.1-2.2 5.8.2.7 1 1.1 1.7.8.9-.3 1.6.8 2.1 3.2l.7 3.7.9-4.5c2.3-12.5 3.1-15 4.4-14 .9.8.8 1.9-.5 4.8-2 4.3-2.9 12-1 8.9.8-1.3 1.8-1.7 3.5-1.3 1.3.4 2.4.2 2.4-.2 0-.5 1.4-2.5 3-4.3l3.1-3.4-.7 2.7c-.4 1.8-.2 2.8.5 2.8.6 0 1.1-.5 1.1-1.2 0-.9.3-.9 1.2 0 .9.9 1.7.5 3.5-1.6 2.6-3.1 2.8-4.1 1-6.6-1.2-1.6-1.4-1.6-4 .8-3.6 3.3-3.4 1.9.3-3.2 2.8-3.9 7-5.8 7-3.1 0 .5-.4.8-.9.4-.5-.3-1.2-.1-1.6.5-.3.5.1 1 .9 1 .9 0 1.6.9 1.6 2s.4 2 1 2c.5 0 .7.7.4 1.5-.9 2.2 1.3 1.8 2.9-.6.9-1.3 1.7-1.6 2.2-1 .3.6.1 1.1-.5 1.1s-1 .9-.8 2.1c.2 1.4 2.3 3.1 6.3 5.3 3.3 1.7 7.2 4.3 8.8 5.8 1.5 1.6 3.3 2.8 3.9 2.8.9 0 .9.3 0 1.2-1.6 1.6-1.5 3.8.2 3.8 1.8 0 2.6 3.2 2 7.8-.5 3.4-.4 3.5.9 1.9 1.1-1.3 1.7-1.5 2.2-.7.4.7-.2 1.8-1.4 2.6-2.3 1.7-2.8 4.9-.8 5.7.7.3 1.9 2.4 2.7 4.8.8 2.4 1.7 4.6 2.1 4.9.9.7 2.5 15.8 2.1 20.2-.3 3-.7 3.8-2.2 3.8-1.8 0-1.8.2-.5 4.7.8 2.7 1.5 6.3 1.5 8.1 0 3.2.1 3.3 3.1 2.7 2.4-.6 3-.4 2.7.6-.3.8-1.3 1.6-2.4 1.8-2.2.4-3.4 1.9-3.4 4.3 0 1.9 3.4 2.5 4.5.8.3-.6 1.5-1 2.6-1 1 0 1.9.4 1.9 1 0 .5-.4 1-1 1-.5 0-1 1.8-1 4 0 2.4.5 4 1.2 4s-.6 1.8-2.7 4c-3 3.1-3.5 4-2.1 4 1.6 0 1.7.5 1.1 3.7-.4 2.1-.8 3.9-.9 4-.1.1-2.4.8-5.1 1.5-2.8.7-5.8 2.2-6.7 3.3-1.7 2-1.7 1.9-2.9-1.4-1-2.7-1.3-3.1-2.1-1.7-.5.9-1.4 1.6-2 1.6-.6 0-2.6 1-4.5 2.1-2.6 1.6-3.1 2.4-2.1 3 .7.5.8.9.3.9-.6 0-2-.7-3.2-1.5-1.4-1-2.4-1.2-2.8-.5-.3.5.2 1 1.1 1 3.3 0 .3 1.4-3.3 1.6-2.3 0-4.1.8-5 2-.7 1-2 2.7-2.8 3.6-.8 1-1.2 2.4-.9 3.2.6 1.7-2.2 2.1-23.8 3.4-8.7.5-14.2 1.3-15.2 2.1-2.5 2.1-2.2 13.5.4 16.1 1.1 1.1 2.4 2 2.8 2 1.2 0 2.8 6 4.2 15.2 3.1 21.4 8.9 32 20.8 38.4 4.3 2.3 5 3 3.5 3.6-1.3.6-1 .7 1 .4 1.5-.2 4.4.2 6.3.9 3 1 3.3 1.3 1.8 1.9-1.1.4-2 .2-2.2-.3-.2-.6-.8-1.1-1.3-1.1-1.3 0-1.1 3.8.1 4.2.6.2 1.2 2.2 1.3 4.6 0 2.3.6 4.2 1.1 4.2.5 0 .1.6-1 1.4-1.8 1.3-1.9 2.7-1.8 18.6 0 10.7.4 17.4 1.1 17.8.6.4 1.4 3.8 1.8 7.7.4 3.8.9 7.9 1.2 9 .3 1.1.6 5.9.7 10.8.1 6.5-.1 8.7-1.1 8.7-.7 0-2 1.1-2.8 2.4-1.6 2.4-6.8 5-7.9 3.9-.3-.4-.6.4-.6 1.6 0 1.2.3 2 .8 1.8.4-.3 2.1.1 3.7.8 1.8.8 2.3 1.4 1.3 1.4-3.8.2-2.8 8.1 1 8.1.9 0 2.3-1 3.1-2.2 1.1-1.8 1.1-2.2-.3-3-.9-.5-1.6-1.9-1.5-3.1 0-1.2.3-1.6.6-1 .2.7.9 1.3 1.3 1.3.5 0 .3-1.5-.5-3.4-1.8-4.2-1.1-7.3 1.2-5.4 1.1.9 1.6.9 2.3-.1.4-.8 1.2-1.1 1.8-.7 1 .6 1 1.7-.4 7.9-.4 2-.2 2.7 1 2.7.9 0 1.6.6 1.6 1.4 0 .8.9 1.8 2 2.1 1.3.4 2 1.5 2 3.2 0 2.4 3.2 7.5 4.5 7.3.4-.1.9.1 1.2.4.4.3.1.6-.5.6-1.8 0-1.4 2.7.4 3.4 2.8 1.1 3.5.7 2.4-1.4-1.4-2.6.5-2.7 3.3-.2 1.9 1.7 2 1.6 1.3-1.1-.6-2.5-.5-2.6 1.3-1.5 1.7 1 1.8 1.5.5 5-1.1 3.2-1.1 3.8 0 3.8 1.7 0 3 3 1.8 4.2-1.7 1.7-4.2-.3-4.2-3.3 0-1.6-.3-2.9-.6-2.9-1.2 0-3.4 2.9-3.4 4.5 0 2.5-2.4 1.2-2.8-1.5l-.4-2.3-1.2 2.4c-2.5 5.1-4.6 2-5-7.3-.1-1.4-.5-2.4-.9-2.1-1 .6-3.9-3.2-4.8-6.2-.6-1.9-.7-1.9-1.7.5-1.6 3.5-3.7 6-5.2 6-.9 0-.8.7.4 2.5.9 1.3 1.6 3.1 1.6 4 0 .8.8 1.5 1.9 1.5 1 0 2.1.9 2.4 2 .6 2.5.3 2.5-3.3-.2-2.4-1.7-3.2-1.9-4.4-.9-.8.7-2 1-2.7.6-.8-.6-.7-1 .2-1.6 1-.6.6-.9-1.4-.9-1.5 0-3.9-.7-5.3-1.6-1.3-.9-2.6-1.5-2.8-1.3-1 1.2-1.5 5.9-.6 6.4.5.3 1 1.7 1 3s.6 2.5 1.2 2.7c.8.3.4.9-.9 1.7-1.9.9-2.2.9-1.7-.2.4-1-.2-1.4-1.8-1.2-1.3.1-1.5 0-.5-.2.9-.2 1.7-.8 1.7-1.3s.3-1.7.7-2.7c.5-1.5.2-1.4-1.9.5-2.4 2.2-2.8 2.3-5 .8-4.8-3.2-9.7-11.9-16.3-29l-3.8-9.9 1.3-6.8c1-5.4 1.1-7.5.1-9.5-1.1-2.4-1.3-2.5-3.4-1.1-1.9 1.3-2.3 2.5-2.7 10.3-.3 5.9-1.1 10-2.3 12.2-1 1.9-1.5 4.2-1.2 5.2.4 1.4.2 2-.8 2-.8 0-2.1.7-2.8 1.6-.7.9-3.6 2.6-6.5 3.9-3.3 1.5-5.8 3.4-7 5.4-1 1.7-2.2 3.1-2.6 3.1-.4 0-.8 1-.8 2.2 0 1.9-.2 2-1 .8s-1-1.2-1 .5c0 2.5 2.5 6.6 10.1 16.8 3.5 4.6 5.8 8.5 5.5 9.4-.3.8.5 3.4 1.9 5.9 2.7 4.9 3.1 6.4 1.4 6.4-.6 0-.9-.7-.5-1.5.3-1-.1-1.5-1.3-1.5-1 0-2.4-.6-3-1.4-.6-.8-2.4-1.9-4-2.6-1.6-.6-2.8-1.8-2.7-2.7 0-.9-.4-1.8-1-2-.7-.2-1 1.8-.8 6.3l.3 6.6-3.4-.5c-4-.6-4.2-1.4 2.9 10.4 2.5 4.2 4.6 8.1 4.6 8.7 0 .7.3 1.2.8 1.2.7 0 3.2 4.8 3.2 6.2 0 .5.9 1.8 2 3s2 3.2 2 4.5c0 1.3.4 2.3.9 2.3s1.2 1 1.5 2.2l.6 2.3 1.3-2.3 1.3-2.3 1.2 2.6c.7 1.4 1.2 3.2 1.2 4 0 .8.4 1.5 1 1.5.5 0 .9-.3.8-.8-.4-1.4 1.4-7.2 2.2-7.2.8 0 2.6 5.8 2.2 7.2-.1.5.7.8 1.7.8 1.1 0 2.2.6 2.5 1.2.5 1 .7 1 1.2 0 .3-.6 1-1.2 1.5-1.2 1.6 0 1 3.1-1.1 5.7-1.1 1.4-2 3.5-2 4.6 0 1.8.3 1.7 2.8-1.1s3.5-3.2 8-3.2c4 0 5.7.5 8.1 2.6l3.1 2.6v-2.8c0-2.2.3-2.5 1.2-1.6 1.8 1.8 2.8 1.5 2.8-.8 0-1.1.3-2 .6-2 1.2 0 3.3 3.4 3.4 5.2 0 2 .8 2.2 2.9.9.7-.5 1-1.4.7-2-.9-1.3 2.5-1.5 4-.2.5.5 2.6 1.2 4.7 1.5 2.7.5 3.7.3 3.7-.6 0-1.6-5-4.8-7.4-4.8-.9 0-3.2-1-5.1-2.3-2.7-1.7-3.7-3.1-4.1-5.9-.7-4.1-1.9-4.8-4-2-.9 1.1-1.3 1.3-1.4.4 0-.7.7-2 1.5-2.8 1.2-1.3 1.7-1.2 3.5.6 1.1 1.1 3 2 4.3 2 1.2 0 3.3.7 4.5 1.6 2.8 1.9 4.4 1 4-2.4-.3-2.6 0-2.7 4.5-3 2.7-.1 4.7.2 4.7.8 0 .5-.5 1-1.2 1-.6 0-.9.2-.6.5.3.3 1.2.3 2.1-.1 1.2-.4 1.5-1.4 1.1-3.3-.5-2.3-.4-2.4.8-.9.8.9 2.4 1.8 3.7 2 1.5.2 2.5 1.1 2.7 2.3.2 1.1.8 2.1 1.3 2.3.6.2 1.1 1.5 1.1 2.8 0 3-2.9 3.2-5.6.3-1.7-1.9-1.9-1.9-2.6-.2-.6 1.2-.7.9-.3-1 .3-1.5.1-2.7-.5-2.7-.5 0-1 .4-1 1 0 1.6-2.5 1.1-4.7-1-2.2-2-2.2-2-2.8.1-.4 1.1-.4 2.3-.1 2.7.7.6.7.7 8.4 2.4 2.8.7 5.2 1.6 5.2 2 0 .4 1.1.8 2.5.8 2 0 2.5-.5 2.6-2.8 0-2.4.2-2.2 1.2 1.2 1.3 4.2 3.1 5.6 4 3.2.3-.8.2-4.1-.3-7.3-.7-4.1-.7-6.6.1-8.6 1.2-2.9.4-5.1-1-2.8-.6.9-1 .1-1.3-2.5l-.4-3.7 4.2 4.6c3.3 3.7 4.5 6.1 5.6 11 .8 3.4 1.1 7.4.7 8.9-.9 3.4-.4 3.8 4.3 3.8 4.2 0 4.7-.6 2.1-2.6-1.6-1.2-1.6-1.3.8-1.4 1.5 0 2.9-.7 3.3-1.5.3-.9 1.8-1.5 3.9-1.5 1.8 0 3.7-.4 4.3-.9.5-.5 2.3-1.1 3.9-1.3 2.5-.2 3.1-.8 3.3-3.3.3-1.9-.2-3.3-1.4-4.2-1-.7-1.5-1.5-1.2-1.8.3-.3 6.1.2 12.9 1.1 14 1.8 29.6 1.4 35.3-1 2-.8 3.6-1.7 3.6-1.9 0-.2-2-.3-4.4-.3-2.4.1-3.9.4-3.3.8.7.4 0 .8-1.6.8s-2.6-.4-2.2-1c.3-.6 0-1-.7-1.1-.7-.1-.2-.4 1.1-.8 1.4-.4 2.6-1.2 2.7-1.9.1-.7 0-.8-.3-.2-.2.5-2.3 1-4.5 1-3.1 0-3.9-.3-3.5-1.5.3-.7-.2-2.4-1.2-3.7-1.7-2-1.7-2.4-.3-3.8 1.4-1.3 1.4-1.5-.1-1.8-.9-.2-1.7-.7-1.7-1 0-2.3 2.4-9 3.8-10.5 1-1.2 1.1-1.7.3-1.7-.7 0 .1-1.3 1.7-3 1.7-1.7 4.1-3 5.5-3 3 0 4-1 2.6-2.6-1.5-1.8-.1-3.8 1.6-2.4 1.1.9 1.4.6 1.7-1.2.2-1.7 1.1-2.4 3.3-2.8 2.3-.4 3.1-1.1 3.3-3 .2-1.4.8-2.9 1.3-3.5.5-.5.9-1.8.9-3 0-1.7.2-1.8 1.1-.5.8 1.1.9.9.4-1-.4-1.4-1.1-2.9-1.6-3.5-.5-.5-.9-1.9-.9-3.1 0-1.2-.6-2.4-1.2-2.7-.7-.2-1-.8-.6-1.2.4-.4 1.4 0 2.3.9 2.1 2 3.9 2.1 3.1.1-.3-.8-.1-2.7.4-4.1.7-1.9 1.5-2.4 2.9-1.9 1.1.3 2.5-.1 3.2-.9 3.2-3.5 3.9-4.6 3.2-4.6-.4 0-.1-.5.7-1 1.3-.8 1.2-1-.2-1-1.5 0-1.8-.9-1.8-4.5 0-2.5.5-4.5 1-4.5.6 0 1-.8 1-1.8 0-2.9 4.2-6.1 6.3-4.8 1.2.8 2.2.8 3.5-.1 1.2-.7 2.4-.8 3.3-.2.8.5 1 .9.5.9-.6 0-.4.6.2 1.2 1 1 1.5 1 2.2-.1.7-1.2 1.1-1.2 2.3-.2 1 .8 1.7.9 2.2.1.3-.5-.1-1-.9-1-1.8 0-2.2-3.6-.4-4.2.7-.3 1.1-2.3 1-5.2-.2-4.1 0-4.7 1.2-3.7 1.1.9 1.5.5 2-2 .9-4.7.7-8.9-.4-8.9-1.3 0-1.3-5 0-7 .8-1.2 1-1.1 1 .7 0 1.2.4 2.4.9 2.7 1 .7 2.5-9.9 1.6-11.4-.3-.5-.1-1 .6-1 .8 0 1-1.3.6-4-.3-2.2-.1-4 .4-4s.7-1.1.3-2.4c-.4-1.6-.1-2.5 1-2.9 1.7-.7 2-3.6.9-7.7-.7-2.3-.8-2.1-1.4 1.5l-.6 4-.2-4.3c0-2.5.3-4.2 1-4.2s.4-1-.6-2.6c-.9-1.4-1.5-3.4-1.2-4.5.3-1 0-2-.7-2.2-.8-.3-.8-1 .1-2.5 1-1.6.9-2.1-.1-2.5-.9-.4-1.3-2.1-1.1-5.3l.2-4.8 7.4-1.2c7-1.1 18.9-6 20.4-8.4.9-1.5 2.8-1.2 2.2.4-1 2.5.5 2.6 2.4.2 2.3-2.9 2.5-4.3.4-2.6-1.3 1.1-1.4 1-1-.3.4-.8 1.5-1.7 2.6-2 1-.3 1.9-1.1 1.9-1.9 0-1-.3-1-1.1.2-.9 1.2-1 1.2-.5-.3.3-1 .6-2 .6-2.3 0-.2.6-.1 1.3.1 1.6.6 9.1-11 8.1-12.6-.4-.7-.3-.9.3-.6 2 1.3 4.2-7.9 4.4-17.8 0-1 .5-2.5 1-3.1 1-1.3 3.9-10.8 3.9-13.1 0-.7-.8-1.6-1.7-2.2-1.8-.9-29-7.3-36.7-8.6-2.1-.3-3.6-.9-3.3-1.2.3-.3-.5-1.5-1.9-2.8-1.3-1.2-2.4-2.8-2.4-3.4 0-.7-1.3-1.7-3-2.2-1.6-.6-3-1.6-3-2.1 0-1.6-3.2-3.7-5.7-3.8-1.3 0-2.3-.4-2.3-.9s-1.1-1.2-2.4-1.5c-1.5-.4-2.3-1.3-2.2-2.3.1-1.4-.6-1.8-2.7-1.6-2.3.2-3-.3-3.9-2.8-.6-1.8-1.7-2.9-2.8-2.9-1.4 0-2-.9-2.3-3.3l-.4-3.2-.1 3.3c-.3 5-2.6 3.5-3-1.9-.2-2.4-.8-5-1.4-5.7-.8-.9-.8-1.6 0-2.4 1.8-1.8 1.4-2.8-.8-2.8-1.3 0-2-.7-2-2 0-1.5.7-2 2.5-2 1.4 0 2.5-.4 2.5-.9 0-1.3-3.7-2.4-5-1.6-1.4.9-6-.2-6-1.4 0-.5 1.4-1.4 3-2.1 3.9-1.6 3.8-2.3-.5-4.3-4.4-2.1-4.5-2.1-4.5 0 0 1.3-.3 1.4-1.1.6-1.8-1.8 1.5-4.7 3.8-3.5 1 .5 3.7 1 6.1.9 2.6 0 5 .7 6.1 1.7 1.3 1.2 2.1 1.4 2.6.6.4-.6-.3-1.9-1.4-2.9-2.6-2.3-2.6-3.3 0-5 1.7-1 1.9-1.5.8-2.1-1.8-1.2-1.1-1.7 3.3-2.5 3-.6 3.7-.4 4.1 1.2.3 1 .5-.2.6-2.7 0-2.7-.3-4-.7-3.2-1.1 1.7-4.2.4-3.5-1.4.3-.8 1.1-1.4 1.9-1.4.8 0 1.4-.9 1.4-2s-.7-2-1.5-2-1.5-.5-1.5-1c0-.6-1.2-1-2.6-1h-2.6l2.1-1.8c2.2-1.8 2-6.2-.3-6.2-2.2 0-4-5-4-10.6 0-3-.4-5.4-.9-5.4-.4 0-.1-1 .7-2.2.9-1.2 1.6-3.2 1.7-4.3 0-1.1.3-1.4.6-.7.2.6.9 1 1.4.6 1.1-.6 1.2-2.4.2-2.3-3.2.5-4.6-2.4-2.3-4.7 1.5-1.5 3-7.3 2.1-7.8-1.4-.9-1.2-8.6.2-8.3.6.1 1.1-.6 1.1-1.6-.2-2.4.5-2.1 1.6.5.8 2.1.9 2.1 1 .3.1-2.3 2.7-6.1 3.6-5.3.3.4.1 1.5-.5 2.6-1.8 3.3-1.4 5.4.7 4.3 1.1-.6 2.4-.6 3.6.1 1.2.7 2.1.7 2.9-.1.7-.7.6-1.2-.6-1.6-5-1.6-5.2-1.8-1.7-2.4 2-.4 3.8-.2 4.2.4.5.5.5-.6.2-2.5-.4-1.9-1.1-4-1.6-4.7-1.2-1.6-.1-5.3 1.6-5.3.8 0 1.9-.7 2.6-1.5 1-1.2 1-1.5-.4-1.5-1.9 0-2.1-1.6-.3-2.3 1.7-.7-2.9-4.4-6.4-5.1-2.1-.4-2.6-1-2.2-2.4.2-1.1 0-2.3-.6-2.6-.6-.4-1.1-.1-1.1.6s-.9.2-1.9-1.1c-1-1.3-2.3-2.1-2.9-1.7-.6.3-1.3.2-1.7-.4-.3-.5.1-1 .9-1 .9 0 1.6-.9 1.6-2s-.6-2-1.4-2c-.7 0-2.1-1.1-3-2.5-.9-1.4-2.9-3.8-4.4-5.3-3.9-3.8-6.7-8.3-6.7-10.7 0-1.3-.8-2.1-2.4-2.3-1.3-.2-2.6-1.2-2.8-2.3-.4-1.5-1.4-1.9-4.4-1.9-2.5 0-3.9-.5-3.9-1.3 0-1.3-5.9-5.7-7.8-5.7-.7 0-1.2.6-1.3 1.2 0 .7-.5.1-1.1-1.5-.7-1.9-1.7-2.7-3.4-2.7s-2.2-.4-1.8-1.8c.2-.9-.1-.7-.7.5-1.3 2.4-2.9 3.1-2.9 1.2 0-.6-.9-.8-2-.4s-1.9.3-1.8-.2c.4-1.3-2.6-5.3-3.9-5.3-.7 0-1.3.6-1.3 1.2 0 .8-.5.6-1.1-.4-.5-.9-1.6-1.5-2.4-1.2-1 .4-1.2 0-.8-1.5.8-3.1-.1-2.6-3.2 1.9-2.8 4.1-5.4 4.6-3.3.7 1-2 1-2.1-.6-.8-1.5 1.3-1.9 1.3-2.7 0-.5-.8-.9-1.9-.9-2.6 0-.7-1.1-.1-2.5 1.3-2.8 2.8-5.7 2.3-3.1-.4 1.3-1.6 1.1-1.7-2-1.9-1.9-.2-3.4.2-3.4.7zm51 20c0 .5-.4 1-1 1-.5 0-1-.5-1-1 0-.6.5-1 1-1 .6 0 1 .4 1 1zm15 5c0 .5-.4 1-.9 1-.6 0-1.3-.5-1.6-1-.3-.6.1-1 .9-1 .9 0 1.6.4 1.6 1zm-95.2 2.2c-.5 1.6-4.8 2.4-4.8.9 0-.8 1.7-1.6 4.3-2 .5 0 .7.5.5 1.1zM356 83c0 .5-.4 1-1 1-.5 0-1-.5-1-1 0-.6.5-1 1-1 .6 0 1 .4 1 1zm8.6 3.5c.9.8 1.1 1.5.6 1.5-.5 0-1.5-.7-2.2-1.5-.7-.8-.9-1.5-.6-1.5.4 0 1.4.7 2.2 1.5zM270 87.8c-.8.3-1.7.8-2 1.2-.3.4-2.1 1.1-4 1.5-3.1.7-3.3.6-2.1-.9.7-.9 2.4-1.6 3.7-1.6 1.2 0 2.6-.5 2.9-1 .4-.6 1.1-.7 1.8-.3.8.5.7.8-.3 1.1zm90.9 1.8c1 2.3 1 2.6-.4 2-.9-.3-1.9-.6-2.1-.6-.2 0-.4-.9-.4-2 0-2.8 1.5-2.5 2.9.6zm-120.8 3.1c-1.2 2-1.4 1.4-.5-1.2.4-.9.9-1.4 1.1-1.1.3.2 0 1.3-.6 2.3zm6.9 6.7c0 .3-.4.8-1 1.1-.5.3-1 .1-1-.4 0-.6.5-1.1 1-1.1.6 0 1 .2 1 .4zm23 .9c-2.4 1.3-10.8 3.1-9.8 2.2 1.5-1.5 6.8-3.5 9.3-3.5h3l-2.5 1.3zm95.1 1.4c1.3 1.6 1.2 1.7-.3.4-1.7-1.3-2.2-2.1-1.4-2.1.2 0 1 .8 1.7 1.7zm-130.7 1.8c-.6 1.6-2.4 2.1-2.4.7 0-1.1 1.1-2.2 2.1-2.2.5 0 .6.7.3 1.5zm38 .1c.3.8.2 1.2-.4.9-.6-.3-1-1-1-1.6 0-1.4.7-1.1 1.4.7zm-11 3.3c.3.5-.1 1.1-.9 1.4-.9.4-1.2.1-.8-.9.6-1.6 1-1.7 1.7-.5zm3.1.1c.3.5.1 1-.4 1-.6 0-1.1-.5-1.1-1 0-.6.2-1 .4-1 .3 0 .8.4 1.1 1zm111.5 2c0 .5-.2 1-.4 1-.3 0-.8-.5-1.1-1-.3-.6-.1-1 .4-1 .6 0 1.1.4 1.1 1zm-116.7 10.5c-.1 1.7.4 3.3 1.5 4.1 1.3 1 1.4 1.5.5 2.5-.7.7-1.4 1.1-1.5.8-4.7-7.6-5.4-11.4-2-10.7 1.2.3 1.6 1.3 1.5 3.3zM375 135c0 .5-.5 1-1.1 1-.5 0-.7-.5-.4-1 .3-.6.8-1 1.1-1 .2 0 .4.4.4 1zm-.3 7.7c-.3 1-.5.4-.5-1.2 0-1.7.2-2.4.5-1.8.2.7.2 2.1 0 3zm-.6 8.6c-.8.8-1.1.5-1.1-.9 0-2.7 1.4-4.1 1.8-1.9.2.9-.1 2.2-.7 2.8zM360 164.7c-.9 1.4-1 .7-.6-3.1.3-2.7.7-6.1.8-7.5.1-1.4.3 0 .5 3.1.2 3.2-.1 6.6-.7 7.5zm-13.2 1.3c-.1 4.9-.7 9.4-1.3 9.9-.7.7-.9-2.3-.7-8.9.2-6 .7-10 1.4-10 .6 0 .9 3.2.6 9zm25.2-4c0 1.1-.4 2-1 2-.5 0-1-.9-1-2s.5-2 1-2c.6 0 1 .9 1 2zm7 34c0 1.1-.7 2-1.5 2s-1.5-.9-1.5-2 .7-2 1.5-2 1.5.9 1.5 2zm-91.3 8.2c-.3.8-.6.5-.6-.6-.1-1.1.2-1.7.5-1.3.3.3.4 1.2.1 1.9zm-7 1c-.3.8-.6.5-.6-.6-.1-1.1.2-1.7.5-1.3.3.3.4 1.2.1 1.9zM291 231c0 .5-1.2 1-2.6 1-1.4 0-2.3-.4-1.9-1 .3-.6 1.5-1 2.6-1 1 0 1.9.4 1.9 1zm-17 13.9c0 .6-.4 1.3-1 1.6-.5.3-1-.1-1-.9 0-.9.5-1.6 1-1.6.6 0 1 .4 1 .9zm-63.6 25.7c1.8.7 1 3.4-1.1 3.4-.8 0-2.4-.5-3.6-1.2-2.1-1.1-2.1-1.1-.2-1.9 2.6-1 3-1 4.9-.3zm238.3 21c.2.6-.6 1-1.9.8-1.3-.1-2.6-.3-3-.3-.5-.1-.8-.6-.8-1.2 0-1.3 5.2-.7 5.7.7zM434.5 307c-.3.5-1.6 1-2.8.9-2-.1-2-.2.3-.9 1.4-.4 2.6-.8 2.8-.9.2-.1 0 .3-.3.9zm-2.2 4.5c.1.5-1.3 1.1-3 1.3-3.1.3-4.2-.6-2.6-2.2 1-1 5.3-.3 5.6.9zm-8.3 2c0 .8-.7 1.5-1.5 1.5-2.6 0-1.8-2 1.3-2.9.1-.1.2.6.2 1.4zm3.6 14.7c-1.8 2.6-2.2 1.7-.5-1.4.6-1.1 1.3-1.7 1.6-1.5.3.3-.2 1.6-1.1 2.9zm-85.2 2.2c-.4 1.7 0 2.7 1.3 3.5 1.4.8 1.5 1.2.5 1.9-1.1.8-1.1 1.6.2 4.6 1 2.3 1.1 3.6.4 3.6-.6 0 .1.9 1.6 2.1 2 1.6 2.6 2.9 2.6 6 0 2.6.5 4.2 1.5 4.5.8.4 1.5 1.2 1.5 2s.7 1.4 1.5 1.4 1.5.4 1.5 1c0 1.5 4.7 1.2 5.3-.3.3-.6.6-.3.6.7.1 1.5.4 1.7 1.3.8 2.6-2.6 5.2 6.1 2.9 9.7-.5.8-2.7 1.6-4.9 1.7-4.3.2-9.3 3.1-16.2 9.3-4.3 3.9-7.9 5.9-4.6 2.5.9-.8 1.6-2.2 1.6-2.9 0-.7.7-2.1 1.6-3 1.5-1.5 1.5-1.9 0-5.8-.9-2.3-1.9-6.3-2.2-9-.7-4.9-1.7-5.8-3.2-3.1-.7 1.2-1 0-1.1-4-.1-4.4.2-5.6 1.4-5.6 1.9 0 1.9-1.1 0-3.6-1.4-1.8-1.4-1.8-1.5.8 0 2.6-.3 2.8-4.6 2.8h-4.6l.7 3.6c.4 2.2.2 3.9-.4 4.3-.6.4-.8 1.7-.4 2.9.3 1.2.9 2 1.3 1.7 1.1-.7 2.3 2.7 1.2 3.4-1.7 1.1-4.4 10.1-3.9 12.8.3 1.5.1 3.7-.4 4.9-.5 1.5-.4 2.4.4 2.7.7.2.9.8.4 1.2-.4.5-1.3.2-2-.7-.6-.8-2.6-2.1-4.4-2.9-2.1-.9-2.8-1.6-2-2.1 1.9-1.1-6.6-8.6-13-11.4-4-1.8-7-2.5-10.2-2.2-4.2.3-4.7 0-5.9-2.5-1.6-3.2-1-8.1 1.3-11.1 1.4-1.8 1.6-1.8 2.8-.4 1.3 1.6 4.5 2.7 11.2 3.5 4 .4 4 .4 5.9-4.1 2.3-5.8 1.6-10-1.5-9.1-1.9.6-2 .4-1.4-2.7 1-4.6 2.3-5.6 3.1-2.4.7 3.1 2.4 3.5 2.4.6 0-1.1.5-2 1.1-2 .6 0 .8.9.4 2-.5 1.6-.2 2 1.8 2 1.4 0 2.7-.7 3.1-1.5.7-2 5.5-1.9 6.2 0 .6 1.4.8 1.3 2-.2 1.3-1.7 1.3-1.7 1.4-.1 0 2.2.9 2.2 4.6.3 2.6-1.3 2.9-1.3 3.6.3.6 1.6 1.4-6 .8-8.3-.2-.6-.5-2.2-.8-3.8-.4-2.5-.2-2.7 3.2-2.7 3.3 0 3.6.2 3 2.4zm-18.2 4.8c1 1 1.8 2.2 1.8 2.8 0 1.4-2.3 1.3-3.8-.2-.9-.9-1.5-.9-2.4 0-1.7 1.7-4.8 1.5-4.8-.3 0-.8.7-1.5 1.5-1.5s1.5-.8 1.5-1.8c0-3.8 1.5-3.6 6.2 1zm101.1-2.7c-.3.9-.8 1.4-1 1.1-.3-.3-.2-.9.2-1.5.9-1.6 1.5-1.3.8.4zM242 360.6c0 .8-.4 1.4-1 1.4-.5 0-1-.9-1-2.1 0-1.1.5-1.7 1-1.4.6.3 1 1.3 1 2.1zm-.6 16.9c-.4.8-1 1.2-1.5.9-1.4-.8-1-2.4.6-2.4.9 0 1.2.6.9 1.5zM308 380c0 .5-.2 1-.4 1-.3 0-.8-.5-1.1-1-.3-.6-.1-1 .4-1 .6 0 1.1.4 1.1 1zm5 0c0 .5-.4 1-1 1-.5 0-1-.5-1-1 0-.6.5-1 1-1 .6 0 1 .4 1 1zm1.9 3.1c-2.2 1.4-3.3 1-1.9-.6.7-.8 1.7-1.2 2.2-.9.6.4.5 1-.3 1.5zm47.1 22.3c0 1.6-1.8 3.1-2.7 2.2-.8-.8.5-3.6 1.7-3.6.5 0 1 .6 1 1.4zm-54.3 8.8c-.3.7-.5.2-.5-1.2s.2-1.9.5-1.3c.2.7.2 1.9 0 2.5zm44.3 14.3c0 3.4-.3 4.3-1.4 3.9-.8-.3-1.4-1.3-1.4-2.2.1-.9-.2-2.7-.6-4-.6-1.8-.4-2.2 1.3-2.2 1.8 0 2.1.6 2.1 4.5zm4.4 5c-.4.8-.7 1.5-.9 1.5-.2 0-.5-.7-.9-1.5-.3-.9 0-1.5.9-1.5s1.2.6.9 1.5zm-10 22.7c-1.9 3.3-2.7 3.8-4 2.7-1.9-1.5-1.8-2.7.4-3.2 3.3-.9 4.3-.7 3.6.5zm23.6.7c0 .6-.4 1.3-1 1.6-.5.3-1-.1-1-.9 0-.9.5-1.6 1-1.6.6 0 1 .4 1 .9zm-20.5 4.1c-.5.8-1.1.8-1.7.2-.6-.6-.7-1.6-.3-2.2.5-.8 1.1-.8 1.7-.2.6.6.7 1.6.3 2.2zm-4.3 3.2c-.9.9-1.2.7-1.2-1.2s.3-2.1 1.2-1.2c.9.9.9 1.5 0 2.4zm-74.8 9.4c.9 2.5.7 6.4-.4 6.4-.5 0-1-.8-1-1.8 0-.9-.3-2.7-.6-4-.7-2.5 1.1-3.1 2-.6zm2.3 3.1c-.3 1-.5.4-.5-1.2 0-1.7.2-2.4.5-1.8.2.7.2 2.1 0 3zm84.3-.6c0 .5-.7.9-1.5.9-1.5 0-2-1.2-.9-2.3.8-.8 2.4.1 2.4 1.4zm-90.3 3.1c-.3.7-.5.2-.5-1.2s.2-1.9.5-1.3c.2.7.2 1.9 0 2.5zm-81.9 10.3c-.3.3-.9-.2-1.2-1.2-.6-1.4-.5-1.5.5-.6.7.7 1 1.5.7 1.8zm3.2 4c1.3 1.4 1.9 2.5 1.4 2.5-.8-.1-5-5-4.1-5 .2 0 1.4 1.1 2.7 2.5zm51.1 7.2c-.8 1.5-1 1.5-1.1.2 0-1.7 1-3.2 1.8-2.5.2.3-.1 1.3-.7 2.3zm-42.6 3.3c.3.6-.1.7-.9.4-1.8-.7-2.1-1.4-.7-1.4.6 0 1.3.4 1.6 1zm16.1 20.5c-.3.8.2 1.9 1.2 2.4 1.3.8.9 1-2 .9-4.3-.1-4.8-1-1.6-3.2 2.8-2 3.2-2 2.4-.1zm121.7 3.2c-.7.2-1.9.2-2.5 0-.7-.3-.2-.5 1.2-.5s1.9.2 1.3.5zm-127 14.7c.4 1 .1 1.3-.8.9-.8-.3-1.2-.9-.9-1.4.7-1.2 1.1-1.1 1.7.5zm5.7 4c0 .3-.4.8-1 1.1-.5.3-1 .1-1-.4 0-.6.5-1.1 1-1.1.6 0 1 .2 1 .4z"/><path d="M327.1 346.6c0 1.1.3 1.4.6.6.3-.7.2-1.6-.1-1.9-.3-.4-.6.2-.5 1.3zM344.1 371.6c0 1.1.3 1.4.6.6.3-.7.2-1.6-.1-1.9-.3-.4-.6.2-.5 1.3zM331 62c0 .5.5 1 1 1 .6 0 1-.5 1-1 0-.6-.4-1-1-1-.5 0-1 .4-1 1zM275.2 66c-.7 1.1-.8 2-.3 2 .9 0 2.4-3 1.8-3.6-.1-.2-.8.6-1.5 1.6zM1.2 66.2C.4 67 0 71 0 77.4c0 10 0 10.1 2.7 11.3 1.5.7 3.1 1.3 3.5 1.3 1.1 0 7.8 6.1 7.5 6.9-.3 1.2 7.8 10.1 9.3 10.1.6 0 1 1.6 1 3.6 0 2.2.6 4.1 1.6 4.8.8.7 1.6 2.7 1.7 4.6.2 2.6.8 3.8 2.5 4.5 1.2.5 2.2 1.5 2.2 2.2 0 .7.7 1.3 1.5 1.3 1.7 0 2 1.6.5 2.5-.6.4-.8 1.6-.4 2.7.4 1.3.1 2.4-.7 2.9-1.1.7-1.1.9.2.9 1.9 0 3.1 2.3 2.3 4.5-.3.8.1 2.1.9 3 1 .9 1.4 2.6 1.1 4.5-.4 2.1-.1 3 .9 3 .8 0 2.6 1.1 4.1 2.5 1.5 1.4 3.4 2.5 4.2 2.5.7 0 1.4.3 1.4.8 0 1.3 6.7 4.5 7.9 3.8.6-.4 1.1-.3 1.1.2 0 .7 3.6 3 6 3.7.3.1 1.2.5 2 .8.8.3 4.4 1.7 8 3.1 3.6 1.3 7.3 2.7 8.3 3.1 1.6.7 1.7.2 1.2-4.1-.2-2.7-.9-9.9-1.5-15.9-.6-6.1-1.5-15.1-2-20-.5-5-1.4-16.4-2-25.5-.6-9.1-1.3-18.9-1.6-21.8l-.6-5.3-11.6-5.6c-11.6-5.5-11.8-5.6-24.2-6.4-6.9-.5-16.9-1.3-22.3-1.9-12.5-1.3-14-1.3-15.5.2zM265 74c-3.7 2.8-2 3.2 2 .4 1.9-1.3 2.8-2.4 2-2.4-.8 0-2.6.9-4 2zM258.2 80.1c-2.9 2.7-3.8 3.9-2.9 3.9.8 0 7-6 6.6-6.4-.3-.3-1.9.8-3.7 2.5zM250.3 83.7c-1.8 3.8-.8 4.1 1.2.4.8-1.7 1.2-3.1.8-3.1-.5 0-1.4 1.2-2 2.7zM368 84.4c0 .9.5 1.6 1 1.6.6 0 1-.4 1-.9 0-.6-.4-1.3-1-1.6-.5-.3-1 .1-1 .9zM77 86.9c0 .5.9.7 2 .4 1.1-.3 2-.7 2-.9 0-.2-.9-.4-2-.4s-2 .4-2 .9zM84.3 87.7c.9.2 2.5.2 3.5 0 .9-.3.1-.5-1.8-.5-1.9 0-2.7.2-1.7.5zM231.8 94.7c-.9.2-2.4 1.5-3.2 2.9-.9 1.3-2.3 2.4-3.1 2.4-.8 0-1.5.4-1.5 1 0 .5.4 1 .9 1 1.5 0 11-6.8 10.4-7.4-.7-.6-.8-.6-3.5.1zM104.5 97.2c.2.7.6 5.9.8 11.6.3 5.7.8 10.6 1.2 11 .4.4.5-3.1.1-7.8-.3-4.7-.6-10.2-.6-12.3 0-2-.4-3.7-1-3.7-.5 0-.7.6-.5 1.2zM162.9 97.2c-1.2.8-1.5 1.8-.9 3.2.5 1.2 1.3 10.6 2 21.1.6 10.4 1.5 24.4 2.1 31 .5 6.6 1.1 14.1 1.2 16.7.1 2.7.6 4.8 1 4.8s.5-3.9.2-8.8c-1.6-27-2.6-48.1-2.8-58 0-6.2-.3-11.2-.6-11.1-.3 0-1.3.5-2.2 1.1zM133 105.2c0 3.5.5 11.8 1 18.4.5 6.7 1 14.9 1.1 18.3.1 3.4.5 6.3.8 6.5.3.2 1.9.2 3.5-.1l2.8-.6-.6-6.6c-.3-3.6-.8-10.7-1.2-15.7-.3-5.1-1-10.7-1.5-12.5-.6-2.6-.7-1.8-.4 3.1 1.4 19.8 1.7 31 .9 31-.5 0-1.1-3-1.2-6.8-.4-9.6-2.2-30.5-2.9-31.4-1.2-2.1-1.3-8.2-.1-9 1-.6.8-.8-.4-.8-1.5 0-1.8.9-1.8 6.2zM389 110.1c0 .5.5.7 1 .4.6-.3 1-.8 1-1.1 0-.2-.4-.4-1-.4-.5 0-1 .5-1 1.1zM550.3 110.4c.3.7 0 1.9-.6 2.5-.8.8-.7 1.1.6 1.1 1.1 0 1.7-.8 1.7-2.5 0-1.4-.5-2.5-1.1-2.5-.6 0-.9.6-.6 1.4zM545 113c-.9.6-1 1-.3 1 .6 0 1.5-.5 1.8-1 .8-1.2.4-1.2-1.5 0zM557.3 114.7c-1.5.5-1.8 3.3-.4 3.3.8 0 2.5-3 1.9-3.5-.2-.1-.9 0-1.5.2zM215.6 116.5c-.3.8-1.2 1.5-2.1 1.5-.8 0-1.5.7-1.5 1.5s-.6 1.2-1.2 1c-1.5-.6-5.1 5.2-4.3 6.6.4.5 0 .6-.8.4-1.4-.6-7.6 4.7-7.8 6.8-.2 2 .3 6.2.8 7 .3.4 1.6.1 3-.8s2.7-1.5 2.9-1.2c.6.6-4.4 10.5-5.7 11.3-.8.4-.7.9.2 1.5 1.1.7 1 .9-.3.9-1.1 0-1.8.8-1.8 1.8s-.5 2.3-1.1 2.9c-.8.8-.8 1.3.1 1.8 1.6 1 4-1.4 3.3-3.3-.6-1.5-.4-1.5 1.5.1 2.7 2.5 4.6 1.3 3.8-2.4-.5-2.7.1-3.4 2.7-3 .4 0 .7-.5.7-1.3s1.2-2.5 2.8-3.8c1.5-1.3 2.8-3.4 3-4.7.1-1.4 1.1-3.1 2.2-3.8 2-1.4 2-1.4 0-4.3-3.2-4.5-3.6-8.4-1.1-10.9 1.2-1.2 2.1-3.2 2.1-4.6 0-2.8-.5-3.2-1.4-1zM201 137.6c0 .8-.4 1.2-1 .9-.5-.3-1-1-1-1.6 0-.5.5-.9 1-.9.6 0 1 .7 1 1.6zM551.8 117.7c.7.3 1.6.2 1.9-.1.4-.3-.2-.6-1.3-.5-1.1 0-1.4.3-.6.6zM564 117.5c0 .2 1 1 2.3 1.6 2 1.1 2.1 1.1.8-.4-1.3-1.6-3.1-2.3-3.1-1.2zM106.5 127.7c.9 8.9 1.5 9.3 1.5 1 0-3.6-.5-6.9-1.1-7.2-.7-.5-.8 1.4-.4 6.2zM439 125.4c0 1.6.7 2.6 2.2 2.9 2.9.8 3.6.2 3-2.8-.6-3.5-5.2-3.6-5.2-.1zm3.7-.8c-.3.3-1.2.4-1.9.1-.8-.3-.5-.6.6-.6 1.1-.1 1.7.2 1.3.5zM464.4 126.8c.4 7.5 3.6 8.1 3.6.6 0-3.7-.3-4.4-1.9-4.4-1.6 0-1.9.7-1.7 3.8zm2.6.8c0 1.4-.4 2.3-.9 2-.5-.3-.7-1.5-.4-2.6.7-2.8 1.3-2.5 1.3.6zM496.9 123.4c-.2.2-.6 4.3-.9 8.1-.5 7.4-.5 7.5 4.9 7.5 5.5 0 5.2.5 6.6-10.3.5-3.5.3-4.7-.7-4.8-2.2-.2-9.8-.6-9.9-.5zM396.2 126.3c1 .8 1.5 1.7 1.1 2.1-.4.4.1.4 1 0 2.4-.9 1.6-2.8-1.4-3.2-2.2-.2-2.3-.1-.7 1.1zM201.5 127c-.3.5-.1 1 .4 1 .6 0 1.1-.5 1.1-1 0-.6-.2-1-.4-1-.3 0-.8.4-1.1 1zM515 128.8c0 1.2 1.9 2.6 2.6 1.9.2-.2-.2-1-1.1-1.7-.9-.8-1.5-.8-1.5-.2zM400 131.9c0 .5-.3 1.8-.6 2.8-.5 1.7-.5 1.7.6 0 .6-.9 1.8-1.7 2.5-1.7.8 0 1.5-.5 1.5-1 0-.6-.9-1-2-1s-2 .4-2 .9zM395 133.7c0 1.3.5 2.3 1 2.3 1.3 0 1.3-1.1 0-3-.8-1.2-1-1.1-1 .7zM579.8 135.2c-1.9 1.9-2.4 3.8-1 3.8.8 0 3.6-5 3-5.5-.2-.1-1.1.7-2 1.7zM403.4 135.6c.3.8 0 1.1-1 .7-.7-.3-1.4 0-1.4.7 0 .6.9 1.4 2 1.7 1.5.4 1.9 1.1 1.5 2.4-.4 1.1-.2 1.9.2 1.9.8 0 2.8 4.4 3.5 7.5.1.5 1.2 2.1 2.5 3.5s2.3 2.8 2.3 3.1c0 .3 1.1 1.9 2.5 3.5s2.5 3.5 2.5 4.1c0 .7.4 1.3.8 1.3s1.2 1.5 1.7 3.2c1.2 3.9 4.5 5.2 4.5 1.8 0-1.2-.7-2.8-1.5-3.6-.8-.9-1.5-2.9-1.5-4.5s-.4-2.9-1-2.9c-.5 0-1-1.3-1-3s-.7-3.3-1.7-3.9c-1.7-1-1.7-1 0-1.1 1 0 1.6-.4 1.2-1-.3-.5-1.3-.7-2.3-.4-1.1.4-1.3.3-.5-.3 1.6-1.1.6-5-1.5-5.8-1-.4-2.2.2-3.2 1.5-1.2 1.6-1.8 1.8-2.8.8-1.8-1.8-1.5-2.7.7-2.1 1.3.3 2-.2 2.4-1.8.4-1.6.3-1.9-.6-1-1.7 1.7-2.7 1.3-2.7-.8 0-1.1-.4-2.3-1-2.6-.5-.3-1-1.1-1-1.6 0-.6.5-.7 1-.4.6.3 1 .1 1-.4 0-1.2-.1-1.2-3.8-1.6-1.6-.2-2.1.2-1.8 1.1zM551.7 142.2c-.6 4-.6 3.9 1.4 2.5 1.2-1 1.3-1.6.3-3.5-1.1-2.3-1.2-2.3-1.7 1zM196.1 142.6c0 1.1.3 1.4.6.6.3-.7.2-1.6-.1-1.9-.3-.4-.6.2-.5 1.3zM378.1 142.6c0 1.1.3 1.4.6.6.3-.7.2-1.6-.1-1.9-.3-.4-.6.2-.5 1.3zM385 141.9c0 .5.7 1.4 1.5 2.1 1.3 1 1.5.9 1.5-.9 0-1.2-.6-2.1-1.5-2.1-.8 0-1.5.4-1.5.9zM545.2 144c-1.4 2.3-.5 2.6 2 .6 1-.7 1.5-1.6 1.1-1.9-1-1.1-1.8-.8-3.1 1.3zM483.9 146.7c0 1.6-.5 6.2-1 10.3-.5 4.1-1.2 11.5-1.5 16.5-.6 11.1-.9 14.7-1.9 20.7-.8 5.3.3 6.2 7.1 5.3 2.1-.2 4.5-.1 5.3.4 2.2 1.4.5 4.1-2.6 4.3-1.5 0-.5.4 2.2.7 2.8.3 6.6.4 8.7.3 3.3-.4 3.6-.7 4-3.8.2-2.1-.1-3.9-.9-4.6-2.1-1.7-1.6-4 .7-3.3 1.2.4 2 .2 2-.5 0-.6-.5-.8-1.2-.4-.7.5-.9 0-.6-1.4.4-1.5.2-1.9-.8-1.5-1.7.6-1.7.2-.4-3.1 1.1-2.9-.6-3.6-2.9-1.4-1 1.1-1.1.8-.6-1.5.9-3.4-.2-3.6-1.5-.2-.6 1.5-1.7 2.5-3 2.5-1.2 0-2 .7-2 1.6 0 1.5.3 1.5 2.6-.1 2.6-1.7 2.7-1.7 3.8.1 1 1.7 1.6 9.4.8 9.4-.9 0-3.3-3.1-2.9-3.8.3-.4-.1-1.6-.9-2.6-1.1-1.6-1.4-1.6-1.9-.5-.3.9-2 1.5-4 1.6-3.1.1-3.3-.1-2.5-1.7.7-1.4.6-1.9-.5-2.2-1.3-.3-1.3-.7-.1-3 .8-1.4 1-3 .6-3.5-1.4-1.4.1-6.2 2.2-6.9 1.1-.3 2.7.1 3.7 1s2.1 1.3 2.4.9c.4-.3.7-.1.7.5 0 .7.7 1.2 1.5 1.2.7 0 1.8.6 2.2 1.2.4.7 1.7 1.8 2.8 2.4 1.1.6 2 1.7 2.1 2.5 0 .8.2 2.2.2 3.1.1 1 .9 1.8 1.7 1.8.9 0 1.2-.6.9-1.5-.5-1.1.1-1.5 2-1.5 2.5 0 3.1-1.1 2.7-4.6-.1-.6 1.1-.9 2.9-.6 3.2.5 5.2 2.2 2.6 2.2-.9 0-1.6.7-1.6 1.5s-.9 1.5-1.9 1.5c-1.1 0-2.3.4-2.6 1-.3.5.4 1 1.6 1 1.8 0 1.9.3.9 1.5-.6.8-.9 1.9-.6 2.4.4.5.2 1.2-.4 1.6-.6.3-.7 1.8-.3 3.3.4 1.5.6 3.5.5 4.5-.1 2.3 2.8 3.4 4.2 1.6 2.1-2.7 6.3-4.8 8.7-4.3 1.5.3 1.9.2.9-.3-6.7-3.5-8.1-6.6-2.7-6.1 1.7.2 3 .7 2.7 1.3-.3.5-.9.9-1.3.7-.5-.1-.6.2-.2.8 1.1 1.7 3.7 1.1 4.2-1 .6-2.2 2.9-2.7 3.5-.8.5 1.5 6.6 1.5 8.1-.1 1-1.1.5-1.2-2.1-.6-3.2.7-3.4.6-2.7-1.6.4-1.3 1.4-3.2 2.3-4.2.9-1 1-1.7.4-1.7s-1.5.8-2.1 1.7c-.7 1.4-1.2 1.5-2.4.4-1.2-1-2-1-3.7.1-1.7 1.1-2.2 1.1-3-.2-1.4-2.1-1.2-5 .2-5 .6 0 .3-.7-.8-1.5-1.9-1.5-1.9-1.5.5-3.5 1.3-1.1 2.2-2 2-2.1-2.4-.7-7.7-.4-7.2.4.4.6 0 .8-.9.4-1.1-.4-1.8.1-2.2 1.5-.4 1.7-.8 1.9-1.9.9-1.2-.9-1.6-.8-2 .3-.4.9-1.4 1.2-2.6.9-2.6-.7-2.7-1.8-.3-3.3 1.2-.8 1.3-1.3.5-1.6-3.2-1.4.5-6.9 3.8-5.9 1 .4 1.9.2 1.9-.3s1-1.2 2.2-1.5c1.2-.4 1.9-.9 1.5-1.3-.4-.4-.2-1.3.5-2.1.6-.7.8-1.6.5-1.9-.3-.4-1.8.8-3.2 2.5-1.5 1.7-3.6 3.1-4.7 3.1-2.1 0-2.1 0 0-1.9 1.2-1 2.2-2.4 2.2-3.1 0-.7-.8-.2-1.9 1.1-1.6 2-2.1 2.1-3.5 1-1.6-1.4-2-.9-1.7 2.1.1 1-.3 1.8-.8 1.8-.6 0-1 .3-1 .7.6 4-.2 5.3-3.3 5.3-2.5 0-2.9.3-1.8 1 1.3.8 1.3 1-.2 1-.9 0-1.9-.9-2.3-1.9-.4-1.3-1.2-1.7-2.5-1.4-1.1.3-2.6 0-3.4-.6-.9-.8-2.2-.8-3.8-.2-2.7 1-5.4-.1-4.4-1.7.3-.6.2-1.3-.4-1.7-1.2-.7-1.8 2.2-2.3 10.4-.2 3.8-.9 6.7-1.6 6.9-1.2.4-1.2-1.5.5-30.6.4-6.1.4-11.2 0-11.2-.3 0-.6 1.2-.7 2.7zm25.6 29.3c.3.6-.1.7-.9.4-1.8-.7-2.1-1.4-.7-1.4.6 0 1.3.4 1.6 1zm8.3 14.7c0 .5.2 1.6.7 2.6.7 1.7 0 3.6-.9 2.6-1.2-1.1-1.7-5.9-.7-5.9.6 0 1 .3.9.7zM491 195c0 .5-.6 1-1.4 1-.8 0-1.8-.5-2.1-1-.3-.6.3-1 1.4-1 1.2 0 2.1.4 2.1 1zM380.1 150.6c0 1.1.3 1.4.6.6.3-.7.2-1.6-.1-1.9-.3-.4-.6.2-.5 1.3z"/><path d="M497.8 155.2c0 1.8-.1 3.8-.1 4.4 0 .8-1.1.9-3.4.4-2.8-.7-3.3-.6-2.9.7.3.8.6 2 .6 2.7 0 .7 1 1.8 2.3 2.4 1.2.6 1.6 1.1 1 1.1-.7.1-1.3.9-1.3 1.8 0 1.5.2 1.4 1.4-.3 1.3-1.6 1.3-2.1 0-3.5-1.3-1.5-1.3-1.7.2-2.3 1.1-.4 2.2.1 3.3 1.6 2.2 3.1 2 4.3-.6 4.1-1.3-.2-2.3.3-2.3 1s.9 1.3 2 1.4c1.1.1 2-.2 2-.7 0-.4 1.7-1.1 3.7-1.5 2-.3 3.2-1 2.6-1.3-2.1-1.3-2.7-6.2-.9-7.5 1.3-.9 1.5-1.8.8-3.6-.8-2.2-.9-2.1-2.5 1.9-1 2.6-2 3.9-2.7 3.5-.8-.5-.6-1.2.5-2.5 1.5-1.6 1.4-1.8-.5-2.3-1.7-.4-2-1.1-1.5-2.6.4-1.2.2-2.1-.4-2.1-.6 0-1.2 1.5-1.3 3.2zM509.9 156.6c-1.3 1.6-.4 4.8 1.1 3.9.6-.4.8-1.1.5-1.6-.4-.5.4-1.3 1.6-1.7l2.3-.9-2.2-.5c-1.2-.4-2.6 0-3.3.8zM521.1 156.6c0 1.1.3 1.4.6.6.3-.7.2-1.6-.1-1.9-.3-.4-.6.2-.5 1.3zM35 160.4c0 .6-.9 1.9-2 2.9-2.1 1.8-2.7 3.7-1.1 3.7.6 0 1.3-.5 1.6-1 .3-.6 2.2-1 4.1-1 1.9 0 3.4-.5 3.4-1 0-.6-.7-1-1.6-1-1 0-1.4-.6-1.1-1.4.3-.8-.2-1.6-1.4-1.9-1.1-.3-1.9 0-1.9.7zM42.7 167c-.3 1.3 0 2 .9 2 1.5 0 1.9-2.6.5-3.4-.5-.3-1.1.3-1.4 1.4zM376 167.9c0 2.5.6 2.7 1.3.6.4-.8.2-1.7-.3-2-.6-.4-1 .3-1 1.4zM595.6 169.9c.5 3.4.4 3.9-1.7 4.4-1.4.4-3 .1-3.9-.8-.8-.7-2.7-1.8-4.3-2.4-1.5-.6-2.7-1.6-2.6-2.3 0-.8.2-.9.5-.2.3.6 1.6.9 2.9.6 4.6-.8 3.6-2-1.5-1.9-2.8.1-4.6.3-4 .5.6.2.2 1.1-.9 1.9-1.2.8-1.9 1.9-1.6 2.4.4.5.1.9-.4.9-.6 0-1.1.7-1.1 1.5 0 .9.6 1.2 1.5.9.8-.4 1.5-.1 1.5.5s-.5 1.1-1.2 1.1c-.6 0-.8.3-.4.7.6.7 1.2.9 5 1.6 2.6.5 3.3 2.7.9 2.7-1.4 0-1.8.8-1.9 3.5 0 2.6.3 3.4 1.4 3.3.8-.2 1.7.3 1.9 1 .4.9-.3 1.2-2.4.9-2.4-.3-2.8-.8-2.8-3.7 0-3.5-2.1-5.2-3.1-2.6-.4 1.1-1.3 1.4-2.5 1.1-2.4-.8-2.5 1.1-.1 2.4 1.3.7 1.4 1.3.5 2.2-1.7 1.7-6.1 1.4-8.2-.5-1.7-1.6-1.9-1.5-3.5.8-2 3.1-2 4-.1 5.6 1.2 1 1.8 1 3.1-.1 1.5-1.2 1.6-1.1 1 .8-.9 2.8 1.9 6.2 4.5 5.6 2.5-.7 2.4.9-.2 3.8-1.5 1.7-1.9 1.9-1.5.6.4-1.2 0-1.7-1.4-1.7-1 0-2.4-.8-2.9-1.8-.6-.9-1.1-1.1-1.1-.5 0 .7-.4 1.3-1 1.3-.5 0-1.9.9-3 2s-1.6 2-1.1 2c.9 0 .2 5-.9 6.5-.5.6.2 1 1.8 1.1 1.5.1 2.1-.1 1.5-.3-1.4-.5-1.8-3.4-.5-3.2 2 .3 3.2-.2 3.2-1.6 0-.8-.4-1.5-1-1.5-.5 0-1-.5-1-1 0-.6 1.1-.3 2.5.6 1.4.9 2.2 2 1.9 2.6-.3.5.3 1.2 1.5 1.5 1.2.3 2.1.9 2.1 1.4 0 .5 3.9.8 8.8.8 7.9-.2 8.2-.2 3.7-.9-2.7-.4-6-.6-7.1-.3-1.2.3-2.5 0-2.8-.5-.3-.6 2-1.7 5.2-2.5 4.7-1.3 5.3-1.6 3.5-2.2-1.3-.4-2.3-1.1-2.3-1.6 0-1.6 2.7-2.1 4.7-1 3.3 1.7 4.5-.1 3.8-5.5-.6-4.5-.5-5 1.7-5.9 2.8-1.2 3.9-6.5 1.4-6.5-.9 0-1.6-.7-1.6-1.5s-.4-1.5-1-1.5c-.5 0-1-.5-1-1.1 0-.7 1-.9 2.6-.5 2.1.6 2.5.4 2.1-.8-.4-1-.1-1.6.8-1.6.8 0 1.5.6 1.5 1.4 0 .8.4 1.8 1 2.1.6.4.6-.3 0-2.1-.9-2.3-.7-2.9 1.5-4.8 1.7-1.5 2.5-3.1 2.4-5.1 0-1.7-.3-2.4-.6-1.8-.9 2.3-2.5 1.4-1.9-1.1.4-1.6.1-2.6-.9-3-1.2-.4-1.4.1-.9 3.3zm-5.6 6.8c0 1.3-.3 1.3-1.5.3-.8-.7-1.2-1.6-.9-2.1.8-1.3 2.4-.1 2.4 1.8zm-2.4 3c-1 1-1.9-.5-1-1.8.6-1.1.8-1.1 1.2 0 .2.7.1 1.5-.2 1.8zm2.8 8.9c2.3.9 2 2.3-.4 1.7-1.1-.3-2-.9-2-1.4 0-1.1.3-1.1 2.4-.3zm-25.5 4.5c-1.6 1-2.3.4-1.4-1 .3-.6 1.1-.8 1.7-.5.6.4.5.9-.3 1.5zm9.1 6c0 .5-.7.9-1.5.9-1.5 0-2-1.2-.9-2.3.8-.8 2.4.1 2.4 1.4zM539.5 171c-.3 1.1-1.4 2-2.3 2-1.4 0-1.5.2-.2 1 1.7 1.1 3.6-.2 4.3-3 .7-2.6-1-2.6-1.8 0zM519 172.5c-.7.8-.9 1.5-.6 1.5.4 0 1.4-.7 2.2-1.5.9-.8 1.1-1.5.6-1.5-.5 0-1.5.7-2.2 1.5z"/><path d="M569.7 172.8c1.9 1.2-2.2 4.3-4.4 3.5-1.7-.6-1.7-.6-.1 1 .9.9 2.3 1.7 3.1 1.7 2.4 0 2.8 1.3 1 3.3-1.7 1.9-1.7 2 .5.8 1.2-.7 2.7-.9 3.2-.6.5.3 1.1.1 1.4-.4.3-.5 1.6-.7 2.7-.4 3.1.9 2-1.8-1.5-3.5-2.3-1.1-2.5-1.6-1.5-2.9 1.5-1.7-.2-3.3-3.6-3.3-1.3 0-1.6.3-.8.8zM425 174.8c0 .6-.8.9-1.7.6-1.5-.5-1.6-.4-.3.5 1.6 1.1 4-.3 2.7-1.6-.4-.3-.7-.1-.7.5zM276 178.2c0 1.9.2 2 1 .8 1.3-1.9 1.3-3 0-3-.5 0-1 1-1 2.2zM558.9 178.1c1.4.6 2.8.6 3.3.1s-.5-.9-2.4-1c-3.1 0-3.1.1-.9.9zM532 179c0 .5.6 1 1.4 1 .8 0 2.3.3 3.3.6 1.6.6 1.6.5-.2-.9-2.3-1.9-4.5-2.2-4.5-.7zM557.6 181.5c-.3.8-.1 1.5.4 1.5.6 0 1-.7 1-1.5s-.2-1.5-.4-1.5-.6.7-1 1.5zM378 182c0 .5.5 1 1 1 .6 0 1-.5 1-1 0-.6-.4-1-1-1-.5 0-1 .4-1 1zM267 183c0 .5.5 1 1 1 .6 0 1-.5 1-1 0-.6-.4-1-1-1-.5 0-1 .4-1 1zM562.5 185c.3.5.8 1 1.1 1 .2 0 .4-.5.4-1 0-.6-.5-1-1.1-1-.5 0-.7.4-.4 1zM566 185.5c0 .8.7 1.5 1.6 1.5 1.4 0 1.4-.3.4-1.5-.7-.8-1.4-1.5-1.6-1.5-.2 0-.4.7-.4 1.5zM557.1 190.1c-1.9 1.6-2.6 1.7-3.8.7-1.3-1-1.5-.9-1.1.7.3 1.5 1.1 1.9 3 1.7 1.5-.1 2.9.2 3.3.8.3.5 0 .7-.8.4-.8-.3-1.8-.1-2.2.5-.3.7.2 1.1 1.4 1.1 2.3 0 3.2-1.1 3.6-4.6.3-3.3-.5-3.6-3.4-1.3zM595.6 192.2c-.9 1.2-1.6 2.6-1.6 3 0 1.6 3.6.7 4.7-1.2 1.1-1.7 1-1.8-.5-1.3-1.5.6-1.5.5-.3-1 .8-1 .9-1.7.3-1.7-.6 0-1.8 1-2.6 2.2zm1.4 1.8c0 .5-.5 1-1.1 1-.5 0-.7-.5-.4-1 .3-.6.8-1 1.1-1 .2 0 .4.4.4 1zM272 195.7c.1 3.9 1 3.3 2.4-1.5.6-1.6.3-2.2-.8-2.2-1.2 0-1.6 1-1.6 3.7zM593 197.8c0 1.1 2.7 4.2 3.7 4.2.3 0-.2-1-1.3-2.3-1-1.2-2-2.4-2.1-2.6-.2-.2-.3.1-.3.7zM507.1 199.7c0 1 .4 2.6.8 3.6.6 1.7.9 1.7 1.9.4 1-1.2.9-1.6-.4-2.1s-1.4-.9-.4-2.1c1-1.2.9-1.5-.4-1.5-.9 0-1.6.8-1.5 1.7zM563 200c-.6 1.1-.7 2-.2 2 1 0 3.2-2.1 3.2-3.2 0-1.6-1.9-.8-3 1.2zM388.3 204c0 2.5.2 3.5.4 2.2.2-1.2.2-3.2 0-4.5-.2-1.2-.4-.2-.4 2.3zM524.6 201.4c.4 1 1.8 1.6 3.8 1.6 3.3-.1 2.4-1.1-2.1-2.4-1.8-.6-2.2-.4-1.7.8zM535 200.9c-3.1.6-3.2.7-1.2 1.3 1.2.3 2.2 1.3 2.2 2.2 0 1 .9 1.6 2.5 1.6 2.4 0 2.5-.2 1.3-2.3-.7-1.2-1.1-2.5-1-3 .1-.4.1-.6 0-.6-.2.1-1.9.5-3.8.8zM270.4 204.1c-.3.6-.1 1.6.5 2.2.8.8 1.1.5 1.1-1.1 0-2.4-.5-2.8-1.6-1.1zM264.5 205c-.3.5.1 1 .9 1 .9 0 1.6-.5 1.6-1 0-.6-.4-1-.9-1-.6 0-1.3.4-1.6 1zM592.6 207.8c-.2.4.5 1.4 1.7 2.2 1.9 1.2 2.1 1.1 1-.2-.7-.8-1-1.8-.6-2.1.3-.4.1-.7-.5-.7s-1.3.4-1.6.8zM598 212.9c0 .5.5 1.3 1 1.6.6.3 1 .2 1-.4 0-.5-.4-1.3-1-1.6-.5-.3-1-.2-1 .4zM598.2 222.7c-1.5 2.7-2.9 2.9-3.5.5-.4-1.6-.5-1.6-.6 0 0 1-.5 1.8-.9 1.8-1.8 0-.4 4.4 1.6 5.3 3.1 1.4 5.4-1.3 5-6-.3-3.6-.4-3.7-1.6-1.6zM368 223c0 .5.5 1 1.1 1 .5 0 .7-.5.4-1-.3-.6-.8-1-1.1-1-.2 0-.4.4-.4 1zM278.8 224.7c.7.3 1.6.2 1.9-.1.4-.3-.2-.6-1.3-.5-1.1 0-1.4.3-.6.6zM30.5 239c.3.5 1.1 1 1.6 1 .6 0 .7-.5.4-1-.3-.6-1.1-1-1.6-1-.6 0-.7.4-.4 1zM24.3 239.7c.9.2 2.5.2 3.5 0 .9-.3.1-.5-1.8-.5-1.9 0-2.7.2-1.7.5zM40 240.1c0 .5 1.9.9 4.2.9 2.3 0 3.8-.3 3.4-.7-1.1-1.1-7.6-1.3-7.6-.2zM56.8 240.7c1.2.2 3.2.2 4.5 0 1.2-.2.2-.4-2.3-.4s-3.5.2-2.2.4zM86.3 241.7c.9.2 2.5.2 3.5 0 .9-.3.1-.5-1.8-.5-1.9 0-2.7.2-1.7.5zM143 244.4l-3.5 1.3v6.9c0 7 1.5 30.7 2 31.2.1.1 1 0 1.9-.4 1.4-.5 2.1-3.7 1.9-9.2-.1-.6.2-1.2.6-1.2.4 0 1.3-2 2-4.5 1-3.3 1.1-7.4.6-15-.4-5.8-1-10.5-1.3-10.4-.4 0-2.3.6-4.2 1.3zM135.5 254c-.3.5-.3 1 .2 1 .4 0 .3.4-.3.8-.9.5-.8 1.1.2 2 1.2 1.1 1.4.8 1.4-1.8 0-3.1-.4-3.7-1.5-2zM170 263.7c0 2.8 1.5 5.3 3.2 5.3.4 0 .8-.7.8-1.5s-.6-1.5-1.4-1.5c-.9 0-1.2-.7-.9-1.9.3-1 0-2.2-.6-2.5-.7-.5-1.1.3-1.1 2.1zM137 263c0 .5-.7 1-1.5 1-1.8 0-2 2-.2 2.1.6 0 .3.4-.8.9-1.8.8-1.7.9.8.9 2.4.1 2.7-.3 2.7-2.9 0-1.7-.2-3-.5-3s-.5.4-.5 1zM580.7 270.2c-1.2 1.7-1.8 2-2.4 1.1-1-1.4-2.7-.5-3.6 1.9-.3 1-1.3 1.8-2.2 1.8-2 0-1.9 1.6.1 2.4 2.3.9 2.4.8 3.4-2 1.1-2.8 3-2.4 3 .7 0 2.5 3.4 2.5 6-.1 1.5-1.5 1.6-2 .6-2-.8 0-1.6-.3-1.9-.8-.2-.4-.2-.1-.1.5.2.7-.3 1.3-1.1 1.3-1.8 0-2-3.1-.3-4.8.6-.6.9-1.4.6-1.7-.3-.3-1.2.5-2.1 1.7zM588.8 268.7c.6.2 1.8.2 2.5 0 .6-.3.1-.5-1.3-.5-1.4 0-1.9.2-1.2.5zM167.8 269.7c.6.2 1.2 1.2 1.2 2.2 0 .9 1.3 3 3 4.6 1.6 1.5 2.7 3.3 2.4 3.9-.3.6.1.3.9-.6 1.3-1.6 1.5-1.6 3-.1 2.1 2.1 3 1.2 2.9-2.7-.1-5.1-1.1-7.3-2.8-5.9-.7.6-2.1.9-2.9.5-.8-.3-1.5-.1-1.5.4 0 .6-.5 1-1.1 1-.5 0-.7-.5-.4-1 .3-.6-.6-1.5-2-2-2.6-1-5.1-1.3-2.7-.3zm8.2 5.3c0 .5-.2 1-.4 1-.3 0-.8-.5-1.1-1-.3-.6-.1-1 .4-1 .6 0 1.1.4 1.1 1zM151.8 274.8c-1.3 1.5-2.2 3.4-2 4.1.3.8 0 1.1-.5.8-1.3-.8-.5 13.4.8 14.8.5.5.9 2.2.9 3.8 0 1.5.4 2.6.9 2.3.5-.3 1.2.5 1.5 1.9.4 1.4 2.2 4.1 4.1 6.1 1.9 2 3.8 4.7 4.1 6.1.4 1.4 1.5 2.8 2.5 3 1.9.5 2.3 1.5 1.9 4.3-.1 1.2.1 1.2 1.1.3 1-1 1-2.1.1-5.1-.7-2.2-1.2-7.3-1.2-11.5 0-4.1-.7-10.3-1.6-13.7-.8-3.4-1.3-6.8-1-7.5.3-.8.1-1.7-.4-2-.6-.4-1-1.5-1-2.6s-.4-1.7-1-1.4c-.6.3-.7-.1-.4-.9.3-.9 1.1-1.6 1.7-1.6.6 0 .1-.9-1.1-2-3-2.8-6.4-2.5-9.4.8zm13.2 40.3c0 .6-.4.7-1 .4-.5-.3-1-1.1-1-1.6 0-.6.5-.7 1-.4.6.3 1 1.1 1 1.6zM597.4 273.4c-.3.8.1 2.7 1 4.3l1.5 2.8.1-4.3c0-4.1-1.5-5.7-2.6-2.8zM168 276.1c0 .5.5.7 1 .4.6-.3 1-.8 1-1.1 0-.2-.4-.4-1-.4-.5 0-1 .5-1 1.1zM434.1 277.4c.2.2 1.8.6 3.4 1 2.2.5 2.6.4 1.5-.4-1.4-.9-5.9-1.5-4.9-.6zM184.8 278.7c.7.3 1.6.2 1.9-.1.4-.3-.2-.6-1.3-.5-1.1 0-1.4.3-.6.6zM190.2 280.8c-2.8.8-3 2.4-.6 3.2 2.7 1 6.3 0 5.8-1.5-.3-.7.3-1.5 1.3-1.8 1-.3.5-.5-1.2-.5-1.6 0-4 .3-5.3.6zM.7 295.7c-.4.3-.7 2.2-.7 4.1 0 4.1.9 3.6 2.6-1.3.9-2.7.9-3.5-.1-3.5-.6 0-1.5.3-1.8.7zM5.5 297.8c-.3 1 0 2.1.9 2.8 1.6 1.1 2.3 4 .8 3-.4-.2-2.2.2-3.9 1-2.9 1.4-3 1.9-3.2 7.6-.1 3.3.3 6.6.9 7.3 1.3 1.5 6 1.1 7.2-.7.7-.9.8-.5.4 1.1-.3 1.4 0 3.1.7 3.9.9 1.2.9 1.7-.4 2.5s-1.3 1.2.5 3.2c2.5 2.8 3.8 2.3 3-1.1-.7-2.7.7-3.2 2.6-.9 1.3 1.5 3 1.2 3-.6 0-.5-.8-.9-1.7-.7-1.2.2-1.8-.3-1.7-1.5.2-1.3-.3-1.6-1.8-1.1-1.7.5-1.9.3-1.3-1.8.4-1.2 1.5-3 2.6-3.9 1.8-1.6 1.8-1.7-.5-2.3-1.4-.3-3.2-.3-4 0-1.1.4-1.6.1-1.6-1 0-.9.5-1.6 1-1.6.6 0 1-.5 1-1.1 0-.5-1-.3-2.2.5-3 2.1-3.8 2-3.8-.4 0-1.5.7-2 2.5-2 1.4 0 2.5-.4 2.5-.9s1.1-.8 2.5-.7c1.4 0 2.5.5 2.5.9 0 .5.5.5 1 .2.6-.3 1-2 1-3.6 0-1.8-.4-2.8-1-2.4-.6.4-.8 1.5-.5 2.6.5 1.4.2 1.7-.8 1.3-.8-.3-2-2.4-2.6-4.7-1.2-4.8-4.5-7.7-5.6-4.9zM183 299.5c-.7.8-2.1 1.5-3.1 1.5-2.1 0-2.4 1.1-.8 2.7.8.8.8 1.3 0 1.7-.6.4-1.1.2-1.1-.3 0-.6-.8-1.1-1.7-1.1-1.5 0-1.5.2-.4.9 1.8 1.1.7 4.3-1.2 3.5-1-.4-1.7.5-2.1 3.1-.4 1.9-.4 4-.1 4.6.4.5.2 1.6-.4 2.3-1.6 1.9.7 8.2 3.6 9.5 2.1.9 2.9.8 5.2-1.1 2.6-2.2 2.7-2.7 2.3-8.8-.3-5.8-.1-6.9 2.2-10.3 2.5-3.6 2.5-4 1.1-6.7-1.8-3.5-1.8-3.5-3.5-1.5zM38 302.8c0 1.8 1.9 2.4 3.7 1.3 1-.6 1.3-1.1.6-1.1-.6 0-1.8-.3-2.7-.6-.9-.3-1.6-.1-1.6.4zM57.3 305.1c-.4 1.6-.8 1.7-1.4.7-.5-.7-.9-.9-.9-.3 0 1.7 1.4 3.2 3.7 3.7 1.6.4 2 .2 1.6-.8-.3-.8-1-1.4-1.5-1.4-.6 0-.8-.9-.5-2 .3-1.1.3-2 0-2s-.7.9-1 2.1z"/><path d="M31.4 307.7c-1.3 1.3-1.8 1.5-2.2.5-.3-1-.8-.8-1.8.5-1.9 2.6-1.7 3.3 1.1 3.3 1.4 0 2.5-.4 2.5-1 0-.5.7-.7 1.6-.3.8.3 1.3 1.1 1 1.8-.2.7.1 1.8.7 2.4.8.8.8 1.1 0 1.1-1 0-3.3 7-3.6 11.2-.2 2.1-1.7 2.4-1.7.4 0-.8-.7-1.7-1.6-2-1.2-.5-1.5-.2-1 1 .3.8.6 2.2.6 2.9 0 1.7 4 .7 4.7-1.1.3-.8.9-1.4 1.4-1.4 1 0-.1 3.3-1.5 4.2-1.3.9 2.1 4.8 3.7 4.3.7-.2 2.6-.6 4.2-1 2.3-.5 2.7-.4 1.8.6-.7.7-.9 2.4-.6 4.2.5 2.7.4 3-1.5 2.5-1.8-.5-2-.2-1.6 2.1.5 2.2-.1 3.3-3.2 5.9-2 1.8-4.7 3.2-6 3.2-1.3 0-2.6.5-3 1.1-.5.9.1 1 2 .5 1.8-.4 2.5-.3 2.1.4-.3.5-.1 1 .4 1 .6 0 1.1-.6 1.1-1.3 0-.7 1-1.8 2.1-2.6 1.8-1.1 2.3-1.1 3 .1.7 1 1.1 1 1.7.1.6-.9 1.2-.7 2.5.7 1.8 2.2 2.2 4 .8 4-.5 0-1.4-.7-2.1-1.5-1.3-1.5-3-1.2-3 .6 0 .6.4.7 1 .4.6-.3 1 .1 1 1 0 1.1-.6 1.4-2.4.9-1.3-.3-2.6-.1-3 .4-.3.5.8 1.2 2.4 1.6 3 .5 4.3 2.6 1.7 2.6-.7 0-2.2.8-3.3 1.8-1.4 1.3-2.6 1.7-4.1 1.1-1.2-.4-3.1-.2-4.7.6-1.5.8-3.9 1.4-5.4 1.3-1.5 0-4.2.3-5.9.7-2.2.5-3.3.4-3.3-.4 0-.6.7-1.1 1.5-1.1s1.5-.9 1.5-2c0-1.4-.7-2-2.4-2-2.8 0-5.1 2.4-4.2 4.5.6 1.8.5 1.8-2.8.5-3.1-1.1-3.7-4.5-.7-3.5 1.4.4 2.1 0 2.5-1.3.4-1 1.8-2.5 3.1-3.2 2.5-1.4 3.4-4 1.4-4-.8 0-.8-.4.1-1.5.6-.8.9-1.9.5-2.5-.3-.5 0-1 .8-1s1.8-.7 2.1-1.6c.9-2.3.7-3.1-.4-1.3-.9 1.6-8 2.6-8 1.1 0-.4.7-2 1.5-3.6.8-1.5 1.3-3.2 1-3.6-.3-.5-.1-1.1.5-1.5.6-.3 1 .4 1.1 1.7 0 1.3.3 1.7.6 1 .2-.6 1.1-1.2 1.8-1.2 1.2 0 2.5-1.9 3.1-4.7.1-.7-1.4-2.6-3.4-4.3-4.1-3.5-8.8-3.9-8.5-.7 0 1.2-.4 1.6-1.3 1.3-1.1-.4-1.4 1.3-1.3 9.5.1 8.2.3 10 1.5 9.5 2-.8 1.8 2.4-.4 4-1 .9-1.3 1.7-.7 2.1 1.2.9 1.3 3.8.2 4.9-.4.4-.7 4.1-.6 8.3 0 5.6.3 7 .9 5.3 1.1-2.6 1.6-2.7 3.6-.8 1.9 1.9.8 4.3-2.2 5-2.1.6-2.4 1.2-2.4 4.9 0 2.4.5 4.8 1.2 5.5.9.9.9 1.2 0 1.2-.7 0-1.2 1.6-1.2 4 0 4.5 1 5 3.9 1.9 1.1-1.3 2.4-1.8 3.2-1.4.8.6 1 .4.4-.4-.4-.7-1.8-1.1-3.1-.8-2.4.4-3.4-1.6-1.4-2.8.6-.4.8-1.1.5-1.6-.8-1.2 1.7-1.2 4.7 0 2.2.8 2.6.5 4.1-3 .9-2.1 2.2-3.9 2.8-3.9.7 0 .8.7.4 1.7-1.5 3.4-1.1 5.8.8 5.6 1.2-.1 1.7.4 1.3 1.4-.3.8-.6 1.7-.6 1.9 0 .3-1.1.9-2.5 1.4-1.4.5-2.5 1.5-2.5 2.1 0 .6.7.8 1.6.5.9-.3 2-.6 2.5-.6s1.4-1.2 1.9-2.6c.6-1.4 1.5-2.2 2-1.9.8.5.8 1.1.1 1.9-1.3 1.5-.4 2.7 1.4 2 .7-.3 1.6 0 2 .6.5.8 1.1.8 2.1-.1.8-.6 1.4-.8 1.4-.3s.9-.2 1.8-1.4c1.3-1.7 2.6-2.3 4.3-2 2.3.4 2.3.5.4 1.3-1.1.5-3.1 1.9-4.4 3.2-1.3 1.3-3.2 2.3-4.2 2.3-1.2 0-1.9.7-1.9 1.8 0 1-.5 2.3-1.1 2.9-.9.9 0 .9 3.2 0 2.4-.6 5-1.8 5.6-2.6 1.1-1.4 1.5-1.3 3.2.9 1.2 1.4 1.6 2.7 1 3.1-.9.5 7.3 1.3 11.1 1 .8-.1 4.3-.1 7.8-.1 4.9.1 6.2-.2 6.2-1.5 0-1.9 1.6-2 2.4 0 .3.8 1.3 1.5 2.1 1.5.9 0 1.4-.4 1-.9-.3-.6 1.2-.8 3.7-.6 2.3.2 4.8-.1 5.5-.7.9-.7 1.7-.7 2.8.2 1.1.9 1.5.9 1.5.1 0-.7.5-.9 1-.6.6.3 1.3-.1 1.6-.9.3-.9 1.4-1.6 2.4-1.6s2.1-.6 2.3-1.3c.4-.9.8-.8 1.6.3.9 1.3 1.2 1.2 1.7-.7.4-1.3 1.3-2.1 2.5-2 1.3.1 1.7.7 1.4 1.8-.9 2.6 1.9 3 6.1.8 4.8-2.4 4.9-2.4 6.1.3.6 1.5 1.2 1.8 1.7 1 .4-.7.2-1.2-.3-1.2-.6 0-1.1-.4-1.1-.8 0-.5 4.6-.8 10.3-.7 5.6.1 9.6 0 9-.2-.7-.3-1.3-1.1-1.3-1.9 0-1 1.2-1.4 4-1.4 3.1 0 3.8.3 3.4 1.5-.7 1.7 3.1 2.2 4.1.5.3-.6 4.2-1 8.6-.9 8 .1 10.9-.5 7.3-1.6-1-.4-2.7-1.1-3.7-1.6-1.3-.7-2.3-.7-3.2.1-1 .8-1.4.7-1.8-.2-.3-1-.8-1.1-2.6-.1-3 1.8-7.5 1.7-6.8-.1.9-2.2-6.9-1-9.4 1.5-1.1 1.1-2.4 1.7-2.9 1.4-1.5-.9-1.2-2.5.4-2.5.7 0 1.9-.6 2.6-1.4.6-.8 1.7-1.4 2.3-1.2.7.1.9.1.4-.1-.4-.3-.4-1-.1-1.5.4-.7.2-.8-.4-.4-.7.4-1.2.2-1.2-.3 0-.6-.4-1.1-1-1.1-.5 0-1 .9-1 2s-.5 2-1.1 2c-.7 0-1-1.4-.7-3.6.4-3 .2-3.3-.8-1.9-1.1 1.5-1.3 1.5-1.7-.2-.4-1.7-.5-1.7-.6 0-.2 2.7-2.1 1-2.1-1.8 0-1.3-.4-2.7-1-3-.5-.3-1-1.7-1-3.1 0-1.7-.5-2.4-2-2.4-1.1 0-2 .5-2 1.1 0 .5.4.8.9.4.5-.3.9.8.9 2.5-.1 1.6.7 3.9 1.7 5 2 2.2 1.4 5-1.2 5-.9 0-2.8 1-4.1 2.2l-2.5 2.3.6-4 .6-4-1.7 3.7c-1.8 4.1-4.2 5.1-4.2 1.8 0-1.2.7-2 1.8-2 1.4 0 1.5-.2.2-1-.9-.5-1.9-.5-2.7.2-.9.7-1.3.7-1.3-.1 0-.6.6-1.4 1.4-1.7 2.3-.9 1.5-5.9-.9-5.9-1.2.1-1.9.6-1.6 1.5.2.8.5 3.4.6 5.8.3 3.9.2 4.3-1.8 4-1.2-.2-2.2-1-2.2-1.8s-1.2-2.3-2.7-3.2c-1.6-1-2.8-2.3-2.8-3 0-.6 1.1-.1 2.5 1.2 3 2.8 3.3 1.8.6-1.7-1.1-1.3-1.9-3-1.7-3.6.1-.7.1-.9-.1-.5-.7 1.2-3.1.9-3.5-.4-.3-.9-1.9-.8-6.4.4-6.3 1.8-8.4 1.2-8.1-2.2.1-1.1.7-2.2 1.5-2.5.8-.3 1.1-1.2.8-2-.4-1.1.2-1.5 2.1-1.5h2.6l-2.1 2.3c-1.2 1.3-2.2 3.1-2.2 4.1 0 1.6.1 1.6 1.7.1 1.1-1.1 2.6-1.5 4.4-1.1 1.6.3 3.1.1 3.5-.5.3-.5 1.1-.8 1.7-.6.7.2 1.8-.3 2.6-1 .7-.8 1.9-1.2 2.7-.9.7.3 1.4 0 1.6-.6.3-.8 1-.8 2.5.1 2.9 1.5 4.3 1.4 4.3-.4 0-2.1 9-8 12.4-8 3.3 0 4.9-2.4 1.7-2.6-4.2-.3-4.6-.4-4.9-2.2-.2-1.2.3-1.7 1.8-1.7 1.6 0 2-.4 1.6-1.6-.3-.9-.6-2.4-.6-3.5 0-2-2.4-2.6-3.5-.9-.4.6.1.7 1.2.4 1.5-.5 1.6-.4.3.5-2.2 1.5-2.7 1.4-3.4-1.1-.4-1.7-.8-2-1.7-1.1-.6.6-1.7.9-2.4.7-.7-.3-1.6-.1-2 .5-.3.6-1.5 1.1-2.5 1.1-1.3 0-1.7.5-1.4 1.5.4.9-.1 1.8-1.2 2.2-1 .4-1.9.2-2.2-.5-.5-1.7-3.9-1.5-4.5.3-.4.8-.2 1.7.3 2 .4.3 1-.1 1.3-.7.2-.7.8-1 1.2-.6 1.3 1.2-2.6 4.9-4.6 4.3-1.2-.4-1.6 0-1.5 1.2.1 1.5-.6 1.7-3.4 1.5-1.9-.1-3.7-.6-4-1.1-.3-.5-1.5-1.2-2.8-1.6-3.1-.9-2.2-3.1 1.2-2.8 1.4.1 2.6-.2 2.6-.8 0-.5-.4-.9-.9-.9s-1.2-1.1-1.5-2.5c-.4-1.4-1-2.5-1.5-2.5s-1.7-.7-2.5-1.6c-1.7-1.6-1.6-1.7-4.1 5.3-.9 2.7-2.4 1.2-1.8-1.8.5-2.7.3-3.1-1.3-2.7-1 .2-1.9 1-1.9 1.8s-.4 2.6-.9 3.9c-.8 2.4-.9 2.4-2.2.6-.8-1-1.4-2.7-1.4-3.7s-.4-1.8-.9-1.8-.7-.9-.4-2c.4-1.6.2-1.9-1.3-1.4-1.8.5-1.8.5-.1-.9 2-1.6 2.3-3.7.5-3.7-.7 0-.2-.7 1-1.6 1.2-.8 2-2 1.7-2.5-.4-.5-.2-1.7.4-2.6.9-1.6 1-1.6 1.8.5s1 2.2 2.2.8c1.7-2 1.2-2.6-2.7-3.1-5.4-.6-7.1.3-7.9 4.8l-.8 4.1-1.6-2.5c-2.6-3.9-3.3-6.9-1.5-6.9.8 0 1.6.8 1.8 1.7.3 1.5.7 1.3 2.3-1.1 1.9-2.8 1.9-2.9-.1-4.3-1.6-1.2-1.7-1.5-.4-2.3.8-.5 2-.9 2.5-.9.6 0 .4.3-.2.6-1.8.7-1.6 2.3.3 2.3 1.1 0 1.4.6.8 2.2-.6 2.1-.6 2.1 1 .5 1.4-1.3 1.5-2.1.5-3.8-1-1.9-.9-2.1.5-1.6 1 .4 1.6.1 1.6-.9 0-1.1-.6-1.3-1.9-.9-1.1.3-2.2.1-2.6-.5-.4-.6-1.4-.9-2.4-.5-.9.3-.2-.7 1.4-2.3 1.7-1.6 3.9-3.2 5-3.4 1.9-.5 1.9-.6-.4-1.5-2.1-.9-2.2-1.1-.7-2.5 1.8-1.8 2.2-5.8.6-5.8-.5 0-1 .6-1 1.4 0 .8-.5 1.8-1.2 2.2-.8.5-.9.2-.5-.9s-.4-2.3-2.6-3.8c-2.8-1.8-3-1.9-.9-.1 2.2 2 3 5.2 1.2 5.2-.5 0-1.4-.8-1.9-1.8-1-1.6-1-1.6-1.1 0 0 1-.4 1.8-.9 1.8-1.3 0-2-3.7-1-4.7.5-.5.4-1.7-.4-2.7-1.2-1.6-1.7-1.7-3.7-.6-1.2.7-2.5.8-2.9.4-.3-.5-1.7-1-3.1-1.2-1.7-.1-2.1.1-1.2.7 1.1.6.9 1-.7 1.4-1.6.4-2.1 0-2.1-1.3 0-2.7-1.6-3.3-3.6-1.3zm15.2 4c-.2 1.6-.5 3-.5 3.2-.1.3-.6 0-1.2-.6-.8-.8-.7-1.7.3-3.2 1.7-2.8 2-2.7 1.4.6zm-7.6 3.8c-.7.9-1.5 1.3-1.9 1-.3-.3.1-1 .9-1.5 2.1-1.4 2.4-1.2 1 .5zm4 .5c0 .5-.4 1-1 1-.5 0-1-.5-1-1 0-.6.5-1 1-1 .6 0 1 .4 1 1zm4.5 1c-.3.5-1.3 1-2.1 1s-1.2-.5-.9-1c.3-.6 1.3-1 2.1-1s1.2.4.9 1zm-6.3 2.1c3-.3 3.6 1.1 1.4 3.1-1.1 1.1-1.1 1.5.3 2.5 1.3 1 1.4 1.4.2 2.2-.8.5-.9 1.1-.3 1.5 1.5.9.2 4.6-1.7 4.5-1 0-1.1-.2-.3-.6 1.5-.6 1.6-2.3.1-2.3-.6 0-1.7.7-2.6 1.5-1.6 1.7-3.3 1.2-3.3-1 0-.8.6-1.2 1.4-.9.8.3 1.7.1 2.1-.5.3-.6.1-1.1-.5-1.1s-.8-.5-.5-1.1c.4-.5-.1-1.9-1-2.9-1.9-2.1-1.2-6.5.8-5.3.7.4 2.4.6 3.9.4zm12.3-.2c.3.6-.3.9-1.4.8-1.1 0-1.7-.5-1.5-.9.7-1.1 2.2-1 2.9.1zM55 323c0 .5-.5 1-1.1 1-.5 0-.7-.5-.4-1 .3-.6.8-1 1.1-1 .2 0 .4.4.4 1zm-3 2.5c0 .8-.4 1.5-1 1.5-.5 0-1-.7-1-1.5s.5-1.5 1-1.5c.6 0 1 .7 1 1.5zm-5.7 1c-.3.9-.8 1.4-1 1.1-.3-.3-.2-.9.2-1.5.9-1.6 1.5-1.3.8.4zm2.2 3.5c-.3.5-1.1 1-1.6 1-.6 0-.7-.5-.4-1 .3-.6 1.1-1 1.6-1 .6 0 .7.4.4 1zm-2.5 7.1c0 1.1-.7 2.2-1.5 2.6-2 .7-2.9-.2-1.9-1.9.5-.7.9-1.6 1-2.1.1-.4.2-1 .3-1.3.3-1.3 2.1.9 2.1 2.7zm-41.6 2.5c2.1.8 2.1 4 0 4.8-2.2.9-2.3.8-1.6-1.6.3-1.4.2-1.9-.6-1.4-1.3.8-1.7-.6-.5-1.7.8-.8.8-.8 2.7-.1zm38.4 3.6c-.3.7-1.3 1.5-2.4 1.7-1.6.3-1.7.1-.5-1.3 1.6-1.9 3.4-2.1 2.9-.4zm3.6 1c-.5.8-.2.9 1.2.4 1-.4 1.5-.4 1.2 0-.4.3-.1 1.3.7 2.1 2.2 2.1 1.8 3.2-.7 2.6-2.8-.7-6.7-3.3-5-3.3.6 0 1.1-.3 1.1-.8-.3-1.5.1-2.2 1.2-2.2.5 0 .7.5.3 1.2zm8.9 9.8c.6 1.4 1.2 4.2 1.3 6.3.2 4.2-.4 4.4-1.2.3-.2-1.4-.9-3.7-1.4-5.1-.6-1.5-.9-3.8-.9-5.3.1-2.1.2-2.3.6-.7.3 1.1 1 3.1 1.6 4.5zm-7.9-3.2c.2.4-.4.8-1.4.8-1 0-1.6-.4-1.4-.8.3-.4.9-.8 1.4-.8.5 0 1.1.4 1.4.8zM6.5 355c.3.5-.1 1-1 1s-1.3-.5-1-1c.3-.6.8-1 1-1 .2 0 .7.4 1 1zm39.5 3c0 .5-.4 1-1 1-.5 0-1-.5-1-1 0-.6.5-1 1-1 .6 0 1 .4 1 1zm1.4 4.7c1.8-2.3 2.6-2.2 2.6.6 0 3.3-1.9 5-3.8 3.4-1.3-1-1.4-.8-.7 1.2.6 1.9.2 2.8-2.1 4.6-2.3 1.8-2.8 3.1-2.9 6.5 0 2.5-.5 4.5-1.2 4.7-.8.3-1.3-.4-1.3-1.7 0-1.6-.5-2.1-2.2-1.8-3.1.4-3.7-2.9-.9-4.8 1.2-.9 2.1-1.9 2.1-2.4 0-.6 1.4-2.3 3.1-3.9l3.1-3-2.2-2.9c-3.3-4.4-1.5-6 2.1-2 2.7 3.1 3 3.2 4.3 1.5zm13-.1c2.3.9 2 2.4-.4 2.4-1.1 0-2-.7-2-1.5 0-1.7.2-1.8 2.4-.9zm8.6.4c0 .5-.7 1-1.6 1-.8 0-1.2-.5-.9-1 .3-.6 1-1 1.6-1 .5 0 .9.4.9 1zm29 2.5c0 .8-.4 1.5-.9 1.5s-.7 1-.4 2.1c.5 2 .3 2.1-2.1 1.5-1.9-.5-2.6-.3-2.1.4.7 1.1-1.1 4-2.5 4-.9 0 .3-6 1.5-8 .6-1 .9-1 1.5 0 1 1.6 3.3.2 2.6-1.6-.3-.8.1-1.4.9-1.4s1.5.7 1.5 1.5zm-44.6.1c2.2.8 2 2.1-.4 3.4-1.8.9-2 .8-2-1.5 0-2.7.1-2.8 2.4-1.9zm18.3 1.9c-.4.8-1.1 1.5-1.7 1.5-.7 0-.7-.6 0-2.1 1.3-2.3 2.6-1.9 1.7.6zm5.2.4c.9.6 1 1.1.2 1.5-1.3.8-3.1-.1-3.1-1.5 0-1.1 1.1-1.1 2.9 0zm-57.3 3.4c1.6.9 1.8 3.6.3 5.7-.8 1.2-.9 1-.7-1 .3-3.2-1.5-3.9-2.3-.8-.3 1.4 0 3 .9 4 2.1 2.4.1 2.3-2.5-.2-1.8-1.6-2.2-1.7-2.7-.5-.7 2.1-2.2 1.9-4.6-.5-2.5-2.5-1.8-4.5 1-3 1.3.7 2.1.7 2.5 0 .5-.8 1.1-.7 2.1.1 1.2 1 1.3.9.8-.5-.4-1-1.3-1.5-2-1.2-1.6.6-1.7.4-.8-1.8.3-.9 1.4-1.6 2.4-1.6 1.1 0 2.2-.5 2.6-1.2.6-.9.9-.8 1.2.2.3.8 1.1 1.9 1.8 2.3zm9.4-.9c0 1.6-2.1 3.6-3.7 3.6-.8 0-1.3-1.2-1.3-2.9 0-2.5.3-2.8 2.5-2.3 1.4.2 2.5 1 2.5 1.6zm29.2.8c-1.5 1.5-2.6.4-1.8-1.8.5-1.3.9-1.5 1.8-.6s.9 1.5 0 2.4zm-26.2.1c-.3 2-2.7 6.7-3.2 6.2-.9-.9 1.4-7.6 2.5-7.2.4.1.8.6.7 1zm56 1.7c-.9 1.6-1.5 1.9-2.3 1.1-.6-.6-2.1-1.1-3.4-1.1-3.8 0-2.6-1.7 1.3-1.8 2-.1 3.9-.4 4.2-.7 1.2-1.1 1.3.5.2 2.5zm-19.2-.9c-.2.6-.8 1-1.3 1s-1.1-.4-1.3-1c-.2-.6.4-1.1 1.3-1.1s1.5.5 1.3 1.1zm-6.7 1.7c2.1 2 1.7 5.2-.6 5.2-1.6 0-4.8 4.7-4 6 .3.6-.1 1-.9 1-1.2 0-1.6-1-1.6-4 0-3.7.7-4.6 3.4-4.1.4.1 1.4-.3 2-.9.7-.5 1.7-.6 2.1-.2.5.4.5.1.1-.6s-1.6-1-2.7-.7c-1.9.6-2.7-1.3-1.2-2.8.9-1 1.2-.9 3.4 1.1zm-14.7 1.7c.4 1-.2 1.9-1.7 2.4-2.8 1.1-4.4-.3-2.6-2.3 1.8-2 3.5-2 4.3-.1zM25 377.1c0 .5-.4.9-1 .9-.5 0-1-.7-1-1.6 0-.8.5-1.2 1-.9.6.3 1 1 1 1.6zm44.9 1.5c-1.4 1.8-2.4 1.1-1.5-1.1.3-.9 1.1-1.3 1.6-1 .8.5.7 1.1-.1 2.1zm-54.9 4c0 .8-.5 1.2-1 .9-.6-.4-.8-1.1-.5-1.6.9-1.4 1.5-1.1 1.5.7zm69.5 2.4c-.3.5-1 1-1.6 1-.5 0-.9-.5-.9-1 0-.6.7-1 1.6-1 .8 0 1.2.4.9 1zm-67 3c.3.5.1 1-.4 1-.6 0-1.1-.5-1.1-1 0-.6.2-1 .4-1 .3 0 .8.4 1.1 1zm34.5-.6c0 .3-.4.8-1 1.1-.5.3-1 .1-1-.4 0-.6.5-1.1 1-1.1.6 0 1 .2 1 .4zm33.4 3.1c1.7 2.5.9 3.4-1.1 1.4-.9-.9-1.6-.8-2.8.5-.9.9-2.1 1.4-2.6 1.1-1.4-.9-1-2.5.6-2.5.9 0 1.8-.7 2.1-1.5.9-2.1 1.9-1.9 3.8 1zm-56.4 0c0 .8-.4 1.5-1 1.5-.5 0-1-.7-1-1.5s.5-1.5 1-1.5c.6 0 1 .7 1 1.5zm29.5 1.1c.9-.3 1.2 0 .8 1-.6 1.7-3 1.9-3.6.1-.2-.6-.1-1.9.2-2.7.4-1.2.6-1.1.9.3.2 1.1.9 1.6 1.7 1.3zm4-1.6c.3.5.1 1-.4 1-.6 0-1.1-.5-1.1-1 0-.6.2-1 .4-1 .3 0 .8.4 1.1 1zm-34.4 5.5c-.1.5-1.2 1-2.5 1-2 .1-2.3-.2-1.4-1.2 1.2-1.5 3.9-1.4 3.9.2zm32.5 2.2c-.5 1.2-1 1.3-1.8.5s-.8-1.5.3-2.8c1.5-1.8 2.5-.4 1.5 2.3zm15.4-3c-.1 1.1-2.6 4.3-3.4 4.3-.8 0-.8-3.5.1-4.3.9-.9 3.3-.9 3.3 0zm-22.3 2.4c-2.8 1.6-2 3.2 1.3 2.5 3.5-.6 3.8.3 1.1 2.8-2.1 1.9-4.1 1.4-4.1-1 0-.8-.7-1.4-1.5-1.4-2.8 0-1.2-3.5 2-4.2 2.7-.6 3.4.1 1.2 1.3zm-15.4.3c.4 1 .1 1.3-.8.9-.8-.3-1.2-.9-.9-1.4.7-1.2 1.1-1.1 1.7.5zm74.1-.8c1.7.6 2.2 2.4.8 2.4-.5 0-1.7-.7-2.8-1.5-1.9-1.5-.8-2 2-.9zm29.6.4c0 .5-.4 1-1 1-.5 0-1-.5-1-1 0-.6.5-1 1-1 .6 0 1 .4 1 1zm-105 4c0 1.2-1.7 1.2-4.5 0-1.7-.7-1.5-.9 1.3-.9 1.7-.1 3.2.3 3.2.9zm44 1.5c0 .8-.7 1.5-1.5 1.5-2.6 0-1.8-2 1.3-2.9.1-.1.2.6.2 1.4zm18-1.1c0 1.1-1.9 1.5-2.5.6-.3-.5.1-1 .9-1 .9 0 1.6.2 1.6.4zm-37 1.4c0 1.4-2.2 3.1-3.5 2.6-.7-.3-1.6 0-2.1.7-.4.7-.3 1 .4.5.6-.3 1.3-.2 1.7.4.8 1.3-1.5 1.3-3.5 0-1.2-.8-1.2-1.2.5-2.9 2-1.9 6.5-2.9 6.5-1.3zm-35 .6c0 .2-.7.7-1.6 1-.8.3-1.2.2-.9-.4.6-1 2.5-1.4 2.5-.6zm23 .6c0 .5-.2 1-.4 1-.3 0-.8-.5-1.1-1-.3-.6-.1-1 .4-1 .6 0 1.1.4 1.1 1zm21 1c0 .5-.4 1-1 1-.5 0-1-.5-1-1 0-.6.5-1 1-1 .6 0 1 .4 1 1zM63.2 310.3c-.6.7-.8 1.8-.4 2.4.6.9 1.1.6 2-.7 1.3-2.2 0-3.6-1.6-1.7z"/><path d="M16 313.8c0 1.8 5.2 6.1 6.7 5.5.7-.3 2 0 2.8.7 1.2 1 1.5 1 1.5-.3 0-.8-.6-1.8-1.2-2.1-.7-.3-.3-.3.9-.1 1.2.3 2.5.1 2.9-.6.5-.8-.7-1-4.6-.6-4.6.5-5.6.3-7.2-1.5-1-1.2-1.8-1.6-1.8-1zM70.6 322.6c-1 2.6-.7 5.2.7 5.7 2.3.9 3.5-.7 3-4.1-.6-3.4-2.7-4.3-3.7-1.6zM94.6 324.3c.3 1 .9 1.5 1.2 1.2.3-.3 0-1.1-.7-1.8-1-.9-1.1-.8-.5.6zM21.7 326.4c-.4.9-1.2 1.4-1.7 1.1-.6-.4-.9-.2-.8.4.2.5-.6 1.7-1.7 2.6l-2 1.6 2-1c3.6-1.9 5.7-4 5.3-5.2-.3-.9-.7-.7-1.1.5zM55.5 327c-.3.5.1 1 .9 1 .9 0 1.6-.5 1.6-1 0-.6-.4-1-.9-1-.6 0-1.3.4-1.6 1zM134.5 327c.3.5.8 1 1.1 1 .2 0 .4-.5.4-1 0-.6-.5-1-1.1-1-.5 0-.7.4-.4 1zM60.4 327.7c1 1 4.6 1.1 4 .1-.3-.4-1.5-.8-2.6-.8-1.2 0-1.8.3-1.4.7zM162 332.7c0 3.2.3 8.1.6 11l.7 5.2 6.3-.2c3.5-.2 6.4.1 6.4.6 0 .4.5.5 1 .2 1.8-1.1 1.1-2.9-3.2-8.5-2.3-3-5.1-7.3-6.2-9.5-1.2-2.2-2.9-4.1-3.9-4.3-1.5-.3-1.7.5-1.7 5.5zM120 331.2c0 1.2-.8 1.8-2.2 1.8-1.2 0-1.8.3-1.4.7 1 1 3 1.1 3.6.1.9-1.2 5 .3 5 1.8 0 .8.5 1.4 1 1.4.6 0 1 .7 1 1.6 0 1.3.5 1.1 2.8-.6 2.3-1.9 2.7-2 3-.6.4 1.9 2.2 1.1 2.2-1 0-.8-.8-1.4-1.7-1.4-1.6 0-1.6-.2-.3-1.1 1.2-.9 1.2-1-.3-.5-1 .3-2.3.6-2.8.6-.6 0-.7.4-.4 1 .3.5-.3 1-1.5 1s-1.9-.4-1.6-.9c.8-1.2-2-3.4-3.3-2.7-.5.4-1.4-.2-2-1.1-1-1.7-1-1.7-1.1-.1zM20 333.9c-.7 1.5-.8 2.1-.1 1.7.6-.4 1.1 0 1.1 1 0 1.2.3 1.5 1 .8s.7-1.9.2-3.4l-.9-2.4-1.3 2.3zM61 335.6c0 .8.5 1.2 1 .9.6-.4.8-1.1.5-1.6-.9-1.4-1.5-1.1-1.5.7zM177 337c0 .5.5 1 1 1 .6 0 1-.5 1-1 0-.6-.4-1-1-1-.5 0-1 .4-1 1zM28 339c-1.2.7-1.2 1.2-.2 2.2.9.9 1.2.9 1.2-.4 0-.9.6-1.9 1.3-2.1.6-.3.8-.6.2-.6-.5 0-1.7.4-2.5.9zM33 339c0 .5.5 1 1.1 1 .5 0 .7-.5.4-1-.3-.6-.8-1-1.1-1-.2 0-.4.4-.4 1zM22.3 340.7c-.7.2-1.3 1.1-1.3 1.9 0 .8-.7 1.7-1.5 2-1.7.7-2 4-.5 4.9.6.4.5 1.5-.2 3-.6 1.3-1.5 2.2-1.9 1.9-.4-.2-1.3.4-1.9 1.6-.6 1.1-2.3 2.6-3.8 3.4-2.5 1.4-2.5 1.5-.5 1.6 1.2 0 2.4-.6 2.6-1.3.4-.9.8-.9 1.5.2.6.8 1.8 1.1 3 .7 1.1-.4 2.3-.3 2.6.3.3.5 1.6.7 2.8.3 2.1-.5 2.1-.5-.3-1.5-1.3-.6-3.6-1-5.1-.9-1.6 0-2.8-.4-2.8-.9s.7-.9 1.5-.9c.9 0 1.8-.7 2.1-1.5.4-.8 1.2-1.5 1.9-1.5s1.3-1.1 1.3-2.5.7-3.4 1.7-4.5c1.1-1.2 1.5-2.6 1-4.2-.5-1.7-.4-1.9.4-.8 1.1 1.6 2.7.8 1.6-.9-.6-1.1-2.1-1.3-4.2-.4zm-.3 5.9c-1.8 2.1-2.4 1-.9-1.8.8-1.4 1.4-1.8 1.7-1 .2.7-.2 1.9-.8 2.8zM60.2 345.2c-1.6 1.6-1.5 2.8.2 2.8.9 0 1.2.7.9 2-.7 2.6.2 2.5 2.9-.2 1.3-1.3 1.7-2.3 1-2.6-.6-.2-.8-1.1-.5-2 .6-1.4.4-1.5-.9-.4-1.1.9-1.7.9-2 .2-.2-.7-.7-.7-1.6.2zM74.3 347.5c-1.7 1.9-1.6 4.5.1 4.5.8 0 1.7.6 1.9 1.2.3.8.6.6.6-.5.1-.9.5-1.7 1-1.7.4 0 .6-1.1.3-2.5-.5-2.8-2-3.2-3.9-1zM82 347c2 1.3 5 1.3 5 0 0-.6-1.5-1-3.2-1-2.5 0-2.9.3-1.8 1z"/><path d="M24.7 348.7c-1 .3-1.6 1-1.4 1.6.6 1.9 2.2 1.8 3.5-.3 1.2-2 1.1-2.1-2.1-1.3zM68 349c-1.3.8-1.2 1 .3 1 .9 0 1.7-.5 1.7-1 0-1.2-.1-1.2-2 0zM115 372.8c0 .6-.3 1.7-.6 2.5-.3.9.3 1.6 1.5 2 1.2.3 2.1.1 2.1-.4s.4-.8.9-.7c.5.2.9 0 1-.5.3-2.1 0-2.8-.9-2.2-.6.4-1.7.1-2.5-.5-.9-.8-1.5-.8-1.5-.2zM166.6 384.7c-.9 1-.7 7.3.3 7.3 1.8 0 2.9-6.4 1.2-7.4-.4-.3-1.1-.3-1.5.1zM222.3 396.5c0 2.2.2 3 .4 1.7.2-1.2.2-3 0-4-.3-.9-.5.1-.4 2.3zM150 395.4c0 .9 4 1.3 4.6.5.3-.5-.6-.9-2-.9s-2.6.2-2.6.4zM225.2 397.5c0 1.6.2 2.2.5 1.2.2-.9.2-2.3 0-3-.3-.6-.5.1-.5 1.8zM7.2 399.5c-2 .6-3.1 1.4-2.8 2.2.3.8-.5 1.5-1.9 1.9-3.1.8-3.1 1.5-.4 4 2.2 1.9 2.2 1.9 1.4-.5-.5-1.6-.4-2.1.4-1.7.6.4 1.1.2 1.1-.3 0-.6 1-1.1 2.3-1.1 1.8 0 1.9-.2.7-1s-1.1-1 .8-1c1.2 0 2.2.4 2.2 1 0 .5 1.6 1.2 3.5 1.6 1.9.3 3.5 1 3.5 1.6 0 .5.5.6 1.1.3.6-.4.8-1.3.5-2.1-.3-.7-.1-1.6.5-1.9.5-.4.7-1.1.4-1.6-.8-1.2-6.5-1.2-6.5.1 0 1.6-1.6 1.1-2.6-.8-.7-1.4-1.4-1.6-4.2-.7zM102.3 403.7c-.3 1-.8 2.2-1 2.8-.3.5.3.1 1.1-.9 1.6-2 2.1-3.6 1.1-3.6-.3 0-.8.8-1.2 1.7zM223.1 403.7c-1 1.1-1.1 1.7-.2 2.2.6.4 1 1.4.8 2.2-.2.8-.2 1.1 0 .6.3-.4 1-.7 1.7-.7.9 0 1.2-.9.8-2.5-.6-3.2-1.4-3.7-3.1-1.8zM85 407c0 .5.5 1 1.1 1 .5 0 .7-.5.4-1-.3-.6-.8-1-1.1-1-.2 0-.4.4-.4 1zM233.8 409.7c-.8 1.5.4 11.3 1.3 11.3s1-1.1 1.3-8.2c.1-2.9-1.7-5-2.6-3.1zM226.1 412.9c-1.4 2.6-1.4 3.1.4 3.1 1.7 0 2 1.6.5 2.5-1.6 1-1.2 5.5.5 5.5.8 0 1.5-.7 1.5-1.5 0-1.8 1.7-2 2.3-.3.2.7.2.4 0-.7-.3-1.1-.7-3.4-1-5.2-.7-4.4-2.8-6.1-4.2-3.4z"/><path d="M223 415c0 .8.5 2.2 1 3 .9 1.3 1 1.3 1 0 0-.8-.5-2.2-1-3-.9-1.3-1-1.3-1 0zM239 417c0 .5.5 1 1 1 .6 0 1-.5 1-1 0-.6-.4-1-1-1-.5 0-1 .4-1 1zM16.5 419c.3.5 1.1 1 1.6 1 .6 0 .7-.5.4-1-.3-.6-1.1-1-1.6-1-.6 0-.7.4-.4 1zM22 419.4c0 .2.7.7 1.6 1 .8.3 1.2.2.9-.4-.6-1-2.5-1.4-2.5-.6zM240.1 423.6c0 1.1.3 1.4.6.6.3-.7.2-1.6-.1-1.9-.3-.4-.6.2-.5 1.3zM20.5 424c-.3.6.1.7.9.4 1.8-.7 2.1-1.4.7-1.4-.6 0-1.3.4-1.6 1zM17 425c0 .5.5 1 1 1 .6 0 1-.5 1-1 0-.6-.4-1-1-1-.5 0-1 .4-1 1zM233.6 429.9c-.4.7-.5 1.5-.2 1.8.9.9 1.9-.4 1.4-1.8-.4-1.1-.6-1.1-1.2 0zM395.7 432.7c-.4.3-.7 1.1-.7 1.7 0 .6.5.5 1.2-.2.6-.6.9-1.4.7-1.7-.3-.3-.9-.2-1.2.2zM178.8 437.7c-.9 1-2.7 2.8-3.9 3.9-3.6 3.2-5.2 5.5-4.5 6.1.7.8 6.8-4.9 9.8-9 2.1-3 1.2-3.7-1.4-1zM378.9 468.9c-.7 1.7-2.4 3.4-3.6 4-1.3.6-2.9 2.3-3.6 3.8-.6 1.6-1.7 3.2-2.3 3.8-.7.5-1.4 2.1-1.7 3.5-.3 1.4-1.3 5.4-2.2 9-.9 3.6-1.4 8.2-1.2 10.3.4 3 .2 3.7-.9 3.3-.8-.3-1.4.1-1.4 1 0 .8.4 1.3.9 1 .4-.3 1.3.6 1.9 1.9.8 1.6.8 2.5.1 2.5-.5 0-1.2-.7-1.5-1.5-1.1-2.9-2.1-1.5-3.4 4.7-.7 3.5-1.9 7.8-2.6 9.5-1.6 4-.4 4.2 3.1.5 3.3-3.3 5.1-7.5 3.6-8-.6-.2-1.1-1.3-1.1-2.5v-2.2l1.8 2.3 1.8 2.3 1.7-5.7c1-3.2 2-7.8 2.3-10.3.3-2.5 1-6.2 1.6-8.3.8-2.6.8-4.5 0-6.7-.8-2.4-.8-3.1.1-3.1 2.1 0 3.9 4.1 4.7 10.9.5 4 1.5 7 2.4 7.7 1 .6 1.6 2.7 1.7 5l.1 3.9 1.2-4.5c1.4-5.4 3.3-6 7.8-2.7 8.3 6.1 29.5 11.5 49.3 12.7 7.2.4 14.4 1.3 16 2 3.8 1.7 8.5 6 8.5 7.7 0 .7.5 1.3 1 1.3.6 0 1 .6 1 1.3 0 1.5 4.5 5.9 7.5 7.5 1.1.5 4.8 1.7 8.2 2.6 3.5.8 8.6 2.8 11.5 4.3 7 3.7 7.2 3.8 6.3 2.3-.7-1.2-1.3-4.3-1.8-9.3-.1-.9-.4-1.7-.8-1.7s-1.2-1.5-1.8-3.3c-1.7-5-9.3-13.4-19-21-7.4-5.7-17-14.5-16.5-15 .2-.2-.3-2.4-1.1-4.9-2.7-7.6-8.1-11.8-21-16.3-3.4-1.1-10.5-2-22-2.5-14-.7-18.4-1.3-25-3.4-4.4-1.4-8.5-2.6-9.2-2.6-.6 0-1.7 1.3-2.4 2.9zm82.2 31.8c1.3 1.6 1.2 1.7-.3.4-1-.7-1.8-1.5-1.8-1.7 0-.8.8-.3 2.1 1.3zM178 486c0 .5.5 1 1 1 .6 0 1-.5 1-1 0-.6-.4-1-1-1-.5 0-1 .4-1 1zM359.8 485.7c.7.3 1.6.2 1.9-.1.4-.3-.2-.6-1.3-.5-1.1 0-1.4.3-.6.6zM167.1 496.6c0 1.1.3 1.4.6.6.3-.7.2-1.6-.1-1.9-.3-.4-.6.2-.5 1.3zM273 535c0 .5.5 1 1.1 1 .5 0 .7-.5.4-1-.3-.6-.8-1-1.1-1-.2 0-.4.4-.4 1zM272.1 549.8c0 1.6.3 2.1.6 1.2.3-.8 1-1.8 1.5-2.1.5-.3.3-.9-.6-1.2-1.2-.5-1.6 0-1.5 2.1zM260.7 555.7c-.4.3-.7 1.2-.7 1.9 0 1.8 9.2 1.4 9.8-.5.4-1.1-.3-1.3-2.8-.7-1.8.3-3.8.2-4.5-.4-.6-.5-1.5-.7-1.8-.3zM266 561c0 .5-.6 1-1.3 1-.7 0-2.3 1.3-3.7 3-1.4 1.6-3.1 3-3.8 3-.7 0-1.1-.3-.9-.8.3-.4-1.7-.5-4.4-.4-2.7.2-4.9.8-4.9 1.3 0 .4.7.6 1.5.3.8-.4 1.5-.2 1.5.4 0 .5.9 1.2 2 1.5 2.1.5 2.9 5.1 1 6.2-.5.3-1 1-1 1.6 0 .5.5.9 1 .9.6 0 1-.7 1-1.5s.6-1.5 1.3-1.5c.6 0 2.8-1.8 4.7-4.1 4.3-5 8.3-11.9 7-11.9-.6 0-1 .4-1 1zm-9.3 10.2c-.3.8-.6.5-.6-.6-.1-1.1.2-1.7.5-1.3.3.3.4 1.2.1 1.9zM273.3 564.5c-.7.8-1.3 1.9-1.3 2.6 0 .6-1.1 2.2-2.5 3.5-1.4 1.3-2.5 2.9-2.5 3.6 0 .8.5.6 1.1-.5.5-.9 1.5-1.7 2.1-1.7 1.5 0 3.7-3.1 3.8-5.3 0-.9.5-1.7 1-1.7.6 0 1-.5 1-1 0-1.4-1.3-1.2-2.7.5zM377.7 568.4c-3.7 1.4-6.1 3-10.1 7-1.3 1.2-2.1 3.7-2.4 7.1l-.4 5.3-4.9.4c-5.6.6-8.5 2.7-9.4 6.9-.7 2.9-1.9 3.7-3 1.9-1-1.7-2.5-1.1-2.5 1 0 1.7.7 2 3.9 2 3.6 0 4-.3 4.3-2.8.2-1.5.5-2.5.8-2.3.3.2 1.6-.1 2.8-.8 1.3-.7 3.4-1 4.7-.7 2.5.6 3.8 3.9 2.2 5.5-.8.8.1 1.1 3.1 1.1 3.9 0 4.3-.2 4.8-3 .6-2.6.9-2.8 3.5-2.3 5.1 1 11.3-.6 15-3.8 2.2-2 2.6-2.6 1.2-1.9-2.3 1.1-2.3 1 .2-2.6 2.1-3 2.3-4 1.3-5.8-.7-1.1-1.1-2.9-.9-3.9.2-1.7 0-1.7-3.6-.2-4.8 2-5.5 2.8-4.7 4.9.7 1.8 4.3 1.3 5.6-.8.9-1.4 2.2 1.9 1.4 3.9-.3.8-1.9 2.3-3.6 3.3-2.4 1.5-4 1.7-7.7 1.2-5.1-.8-7.3-2.9-7.3-7 0-5.7 7.8-11.2 14.6-10.3 3.9.5 4.4-.9 1.2-3.1-2.7-1.9-5.1-1.9-10.1-.2zM118.6 568.7c-.7.7 2.6 6.3 6.6 11.3 1.5 1.9 2.8 4 2.8 4.7 0 .7.9 2.9 2.1 5 1.2 2 2.2 5.2 2.2 7 .1 2.5.5 3.3 1.9 3.3 2.5 0 1.7-3.1-3.9-14.7-4.3-9-10.5-17.8-11.7-16.6zM394.6 572.5c-.3.8-.1 1.5.4 1.5.6 0 1-.7 1-1.5s-.2-1.5-.4-1.5-.6.7-1 1.5zM264 577.1c0 .5.5.7 1 .4.6-.3 1-.8 1-1.1 0-.2-.4-.4-1-.4-.5 0-1 .5-1 1.1zM471.1 576.9c-.1.8-.8 2.2-1.7 3.2-.9 1-1.3 2.3-.9 2.8.9 1.6 2.5 1.3 1.9-.3-1-2.7 1.6-2.7 4.1 0 1.4 1.5 2.5 2.3 2.5 1.8 0-.5-1.1-2.1-2.3-3.5-1.3-1.3-2.7-3.1-3-3.9-.4-1.3-.6-1.3-.6-.1zM395 578.4c0 .8 1.1 2.8 2.5 4.3l2.5 2.8 1.9-2.5c2.3-2.9 1.9-4-.7-1.7-2.5 2.3-2.9 2.2-3.5-1.3-.7-3-2.7-4.2-2.7-1.6zM250 581.1c0 .5.5.7 1 .4.6-.3 1-.8 1-1.1 0-.2-.4-.4-1-.4-.5 0-1 .5-1 1.1zM247.5 583.4c-2.2 2.3-2.6 3.6-1.1 3 .8-.3 1.7-1.3 2-2.1.8-2 .4-2.4-.9-.9zM464.6 583.9c-2.2 2.4-19.1 11.2-23.1 12.1-1.7.3-3.1 1.3-3.3 2.3-.3 1.5.8 1.7 10.3 1.7 9.4 0 10.6-.2 10.1-1.6-1.1-3 .4-6.2 3-6.2 1.6 0 2.4.6 2.4 1.8 0 1 .6 2 1.3 2.3.9.3.9.7-.2 2-1.5 1.9-.2 2.4 1.6.6.8-.8 1.3-.8 1.7 0 1.3 2 3.6 1.2 3.5-1.2-.1-1.7-.2-1.8-.6-.4-.2.9-.9 1.5-1.4 1.2-.5-.4-.5-1.5.2-2.7.8-1.6.8-2.3-.2-3-1.1-.8-1-.9.4-.4 1.3.4 1.7 0 1.7-1.9 0-2.1-1.2-3.2-2.3-2.3-.8.8-3.3-2.9-2.9-4.4.6-2.3-.1-2.3-2.2.1zM473.1 586c-.1 1.8 1.6 4.6 2.3 4 .2-.3-.2-1.6-.9-3-.8-1.5-1.4-1.9-1.4-1zM331.7 591.7c-.3.5-1.4 2.5-2.6 4.6l-2.1 3.8 3.5-.3c2.8-.2 3.5-.6 3.5-2.3 0-1.1.3-3 .6-4.3.5-1.6.2-2.2-.9-2.2-.9 0-1.8.3-2 .7zM473 593c0 1.1.4 2 .9 2s.7-.9.4-2c-.3-1.1-.7-2-.9-2-.2 0-.4.9-.4 2zM479.5 594.9c-.3.5-.1 1.2.5 1.6.5.3 1-.1 1-.9 0-1.8-.6-2.1-1.5-.7zM316.8 597.1c-2.9 1.6-2.1 2.9 1.8 2.9 2.9 0 3.5-.3 3-1.6-.3-.9-.6-1.8-.6-2 0-.7-2.5-.4-4.2.7zM475.2 598c0 1.4.2 1.9.5 1.2.2-.6.2-1.8 0-2.5-.3-.6-.5-.1-.5 1.3z"/></svg>